<svg xmlns="http://www.w3.org/2000/svg" width="900" height="445" viewBox="0 0 900 445">
<title>Karakteristik kökler</title>
<rect x="0.5" y="0.5" width="899" height="444" rx="10" fill="#ffffff" stroke="#d1d5db"/>
<text x="450.0" y="30.0" font-family="Segoe UI, Helvetica, Arial, sans-serif" font-size="18" fill="#1f2937" text-anchor="middle" font-weight="bold">Karakteristik Denklemin Kökleri ve Birim Çember</text>
<text x="450.0" y="50.0" font-family="Segoe UI, Helvetica, Arial, sans-serif" font-size="12.5" fill="#6b7280" text-anchor="middle" font-weight="normal">Kök mutlak değerce 1'den büyükse (gri bandın dışında) şoklar söner; tam ±1'de birim kök; bandın içinde seri patlar</text>
<rect x="491.7" y="86" width="76.7" height="286" fill="#e5e7eb" stroke="none"/>
<line x1="491.7" y1="86" x2="491.7" y2="372" stroke="#9ca3af" stroke-dasharray="4,3"/>
<line x1="568.3" y1="86" x2="568.3" y2="372" stroke="#9ca3af" stroke-dasharray="4,3"/>
<text x="530.0" y="80.0" font-family="Segoe UI, Helvetica, Arial, sans-serif" font-size="11" fill="#6b7280" text-anchor="middle" font-weight="normal">|z| &lt; 1 (birim çemberin içi)</text>
<text x="20.0" y="80.0" font-family="Segoe UI, Helvetica, Arial, sans-serif" font-size="12" fill="#6b7280" text-anchor="start" font-weight="bold">Model ve karakteristik denklemi</text>
<text x="880.0" y="80.0" font-family="Segoe UI, Helvetica, Arial, sans-serif" font-size="12" fill="#6b7280" text-anchor="end" font-weight="bold">Sonuç</text>
<text x="20.0" y="115.0" font-family="Segoe UI, Helvetica, Arial, sans-serif" font-size="13" fill="#1f2937" text-anchor="start" font-weight="bold">AR(1), φ = 0.5</text>
<text x="20.0" y="132.0" font-family="Segoe UI, Helvetica, Arial, sans-serif" font-size="12" fill="#6b7280" text-anchor="start" font-weight="normal">1 − 0.5z = 0</text>
<line x1="300" y1="120" x2="760" y2="120" stroke="#6b7280" stroke-width="1.2"/>
<line x1="300.0" y1="117" x2="300.0" y2="123" stroke="#6b7280" stroke-width="1"/>
<line x1="338.3" y1="117" x2="338.3" y2="123" stroke="#6b7280" stroke-width="1"/>
<line x1="376.7" y1="117" x2="376.7" y2="123" stroke="#6b7280" stroke-width="1"/>
<line x1="415.0" y1="117" x2="415.0" y2="123" stroke="#6b7280" stroke-width="1"/>
<line x1="453.3" y1="117" x2="453.3" y2="123" stroke="#6b7280" stroke-width="1"/>
<line x1="491.7" y1="117" x2="491.7" y2="123" stroke="#6b7280" stroke-width="1"/>
<line x1="530.0" y1="117" x2="530.0" y2="123" stroke="#6b7280" stroke-width="1"/>
<line x1="568.3" y1="117" x2="568.3" y2="123" stroke="#6b7280" stroke-width="1"/>
<line x1="606.7" y1="117" x2="606.7" y2="123" stroke="#6b7280" stroke-width="1"/>
<line x1="645.0" y1="117" x2="645.0" y2="123" stroke="#6b7280" stroke-width="1"/>
<line x1="683.3" y1="117" x2="683.3" y2="123" stroke="#6b7280" stroke-width="1"/>
<line x1="721.7" y1="117" x2="721.7" y2="123" stroke="#6b7280" stroke-width="1"/>
<line x1="760.0" y1="117" x2="760.0" y2="123" stroke="#6b7280" stroke-width="1"/>
<circle cx="606.7" cy="120" r="6.5" fill="#16a34a" stroke="#ffffff" stroke-width="1.5"/>
<text x="606.7" y="109.0" font-family="Segoe UI, Helvetica, Arial, sans-serif" font-size="11.5" fill="#16a34a" text-anchor="middle" font-weight="bold">z = 2</text>
<text x="880.0" y="124.0" font-family="Segoe UI, Helvetica, Arial, sans-serif" font-size="12.5" fill="#16a34a" text-anchor="end" font-weight="bold">durağan</text>
<text x="20.0" y="169.0" font-family="Segoe UI, Helvetica, Arial, sans-serif" font-size="13" fill="#1f2937" text-anchor="start" font-weight="bold">AR(1), φ = 1</text>
<text x="20.0" y="186.0" font-family="Segoe UI, Helvetica, Arial, sans-serif" font-size="12" fill="#6b7280" text-anchor="start" font-weight="normal">1 − z = 0</text>
<line x1="300" y1="174" x2="760" y2="174" stroke="#6b7280" stroke-width="1.2"/>
<line x1="300.0" y1="171" x2="300.0" y2="177" stroke="#6b7280" stroke-width="1"/>
<line x1="338.3" y1="171" x2="338.3" y2="177" stroke="#6b7280" stroke-width="1"/>
<line x1="376.7" y1="171" x2="376.7" y2="177" stroke="#6b7280" stroke-width="1"/>
<line x1="415.0" y1="171" x2="415.0" y2="177" stroke="#6b7280" stroke-width="1"/>
<line x1="453.3" y1="171" x2="453.3" y2="177" stroke="#6b7280" stroke-width="1"/>
<line x1="491.7" y1="171" x2="491.7" y2="177" stroke="#6b7280" stroke-width="1"/>
<line x1="530.0" y1="171" x2="530.0" y2="177" stroke="#6b7280" stroke-width="1"/>
<line x1="568.3" y1="171" x2="568.3" y2="177" stroke="#6b7280" stroke-width="1"/>
<line x1="606.7" y1="171" x2="606.7" y2="177" stroke="#6b7280" stroke-width="1"/>
<line x1="645.0" y1="171" x2="645.0" y2="177" stroke="#6b7280" stroke-width="1"/>
<line x1="683.3" y1="171" x2="683.3" y2="177" stroke="#6b7280" stroke-width="1"/>
<line x1="721.7" y1="171" x2="721.7" y2="177" stroke="#6b7280" stroke-width="1"/>
<line x1="760.0" y1="171" x2="760.0" y2="177" stroke="#6b7280" stroke-width="1"/>
<circle cx="568.3" cy="174" r="6.5" fill="#dc2626" stroke="#ffffff" stroke-width="1.5"/>
<text x="568.3" y="163.0" font-family="Segoe UI, Helvetica, Arial, sans-serif" font-size="11.5" fill="#dc2626" text-anchor="middle" font-weight="bold">z = 1</text>
<text x="880.0" y="178.0" font-family="Segoe UI, Helvetica, Arial, sans-serif" font-size="12.5" fill="#dc2626" text-anchor="end" font-weight="bold">birim kök</text>
<text x="20.0" y="223.0" font-family="Segoe UI, Helvetica, Arial, sans-serif" font-size="13" fill="#1f2937" text-anchor="start" font-weight="bold">AR(1), φ = 1.2</text>
<text x="20.0" y="240.0" font-family="Segoe UI, Helvetica, Arial, sans-serif" font-size="12" fill="#6b7280" text-anchor="start" font-weight="normal">1 − 1.2z = 0</text>
<line x1="300" y1="228" x2="760" y2="228" stroke="#6b7280" stroke-width="1.2"/>
<line x1="300.0" y1="225" x2="300.0" y2="231" stroke="#6b7280" stroke-width="1"/>
<line x1="338.3" y1="225" x2="338.3" y2="231" stroke="#6b7280" stroke-width="1"/>
<line x1="376.7" y1="225" x2="376.7" y2="231" stroke="#6b7280" stroke-width="1"/>
<line x1="415.0" y1="225" x2="415.0" y2="231" stroke="#6b7280" stroke-width="1"/>
<line x1="453.3" y1="225" x2="453.3" y2="231" stroke="#6b7280" stroke-width="1"/>
<line x1="491.7" y1="225" x2="491.7" y2="231" stroke="#6b7280" stroke-width="1"/>
<line x1="530.0" y1="225" x2="530.0" y2="231" stroke="#6b7280" stroke-width="1"/>
<line x1="568.3" y1="225" x2="568.3" y2="231" stroke="#6b7280" stroke-width="1"/>
<line x1="606.7" y1="225" x2="606.7" y2="231" stroke="#6b7280" stroke-width="1"/>
<line x1="645.0" y1="225" x2="645.0" y2="231" stroke="#6b7280" stroke-width="1"/>
<line x1="683.3" y1="225" x2="683.3" y2="231" stroke="#6b7280" stroke-width="1"/>
<line x1="721.7" y1="225" x2="721.7" y2="231" stroke="#6b7280" stroke-width="1"/>
<line x1="760.0" y1="225" x2="760.0" y2="231" stroke="#6b7280" stroke-width="1"/>
<circle cx="561.9" cy="228" r="6.5" fill="#ea580c" stroke="#ffffff" stroke-width="1.5"/>
<text x="561.9" y="217.0" font-family="Segoe UI, Helvetica, Arial, sans-serif" font-size="11.5" fill="#ea580c" text-anchor="middle" font-weight="bold">z = 0.83</text>
<text x="880.0" y="232.0" font-family="Segoe UI, Helvetica, Arial, sans-serif" font-size="12.5" fill="#ea580c" text-anchor="end" font-weight="bold">patlayan</text>
<text x="20.0" y="277.0" font-family="Segoe UI, Helvetica, Arial, sans-serif" font-size="13" fill="#1f2937" text-anchor="start" font-weight="bold">AR(2), φ₁ = 0.6, φ₂ = 0.16</text>
<text x="20.0" y="294.0" font-family="Segoe UI, Helvetica, Arial, sans-serif" font-size="12" fill="#6b7280" text-anchor="start" font-weight="normal">1 − 0.6z − 0.16z² = 0</text>
<line x1="300" y1="282" x2="760" y2="282" stroke="#6b7280" stroke-width="1.2"/>
<line x1="300.0" y1="279" x2="300.0" y2="285" stroke="#6b7280" stroke-width="1"/>
<line x1="338.3" y1="279" x2="338.3" y2="285" stroke="#6b7280" stroke-width="1"/>
<line x1="376.7" y1="279" x2="376.7" y2="285" stroke="#6b7280" stroke-width="1"/>
<line x1="415.0" y1="279" x2="415.0" y2="285" stroke="#6b7280" stroke-width="1"/>
<line x1="453.3" y1="279" x2="453.3" y2="285" stroke="#6b7280" stroke-width="1"/>
<line x1="491.7" y1="279" x2="491.7" y2="285" stroke="#6b7280" stroke-width="1"/>
<line x1="530.0" y1="279" x2="530.0" y2="285" stroke="#6b7280" stroke-width="1"/>
<line x1="568.3" y1="279" x2="568.3" y2="285" stroke="#6b7280" stroke-width="1"/>
<line x1="606.7" y1="279" x2="606.7" y2="285" stroke="#6b7280" stroke-width="1"/>
<line x1="645.0" y1="279" x2="645.0" y2="285" stroke="#6b7280" stroke-width="1"/>
<line x1="683.3" y1="279" x2="683.3" y2="285" stroke="#6b7280" stroke-width="1"/>
<line x1="721.7" y1="279" x2="721.7" y2="285" stroke="#6b7280" stroke-width="1"/>
<line x1="760.0" y1="279" x2="760.0" y2="285" stroke="#6b7280" stroke-width="1"/>
<circle cx="577.9" cy="282" r="6.5" fill="#16a34a" stroke="#ffffff" stroke-width="1.5"/>
<text x="577.9" y="271.0" font-family="Segoe UI, Helvetica, Arial, sans-serif" font-size="11.5" fill="#16a34a" text-anchor="middle" font-weight="bold">z = 1.25</text>
<circle cx="338.3" cy="282" r="6.5" fill="#16a34a" stroke="#ffffff" stroke-width="1.5"/>
<text x="338.3" y="271.0" font-family="Segoe UI, Helvetica, Arial, sans-serif" font-size="11.5" fill="#16a34a" text-anchor="middle" font-weight="bold">z = −5</text>
<text x="880.0" y="286.0" font-family="Segoe UI, Helvetica, Arial, sans-serif" font-size="12.5" fill="#16a34a" text-anchor="end" font-weight="bold">durağan</text>
<text x="20.0" y="331.0" font-family="Segoe UI, Helvetica, Arial, sans-serif" font-size="13" fill="#1f2937" text-anchor="start" font-weight="bold">AR(2), φ₁ = 1.5, φ₂ = −0.5</text>
<text x="20.0" y="348.0" font-family="Segoe UI, Helvetica, Arial, sans-serif" font-size="12" fill="#6b7280" text-anchor="start" font-weight="normal">1 − 1.5z + 0.5z² = 0</text>
<line x1="300" y1="336" x2="760" y2="336" stroke="#6b7280" stroke-width="1.2"/>
<line x1="300.0" y1="333" x2="300.0" y2="339" stroke="#6b7280" stroke-width="1"/>
<line x1="338.3" y1="333" x2="338.3" y2="339" stroke="#6b7280" stroke-width="1"/>
<line x1="376.7" y1="333" x2="376.7" y2="339" stroke="#6b7280" stroke-width="1"/>
<line x1="415.0" y1="333" x2="415.0" y2="339" stroke="#6b7280" stroke-width="1"/>
<line x1="453.3" y1="333" x2="453.3" y2="339" stroke="#6b7280" stroke-width="1"/>
<line x1="491.7" y1="333" x2="491.7" y2="339" stroke="#6b7280" stroke-width="1"/>
<line x1="530.0" y1="333" x2="530.0" y2="339" stroke="#6b7280" stroke-width="1"/>
<line x1="568.3" y1="333" x2="568.3" y2="339" stroke="#6b7280" stroke-width="1"/>
<line x1="606.7" y1="333" x2="606.7" y2="339" stroke="#6b7280" stroke-width="1"/>
<line x1="645.0" y1="333" x2="645.0" y2="339" stroke="#6b7280" stroke-width="1"/>
<line x1="683.3" y1="333" x2="683.3" y2="339" stroke="#6b7280" stroke-width="1"/>
<line x1="721.7" y1="333" x2="721.7" y2="339" stroke="#6b7280" stroke-width="1"/>
<line x1="760.0" y1="333" x2="760.0" y2="339" stroke="#6b7280" stroke-width="1"/>
<circle cx="568.3" cy="336" r="6.5" fill="#dc2626" stroke="#ffffff" stroke-width="1.5"/>
<text x="568.3" y="325.0" font-family="Segoe UI, Helvetica, Arial, sans-serif" font-size="11.5" fill="#dc2626" text-anchor="middle" font-weight="bold">z = 1</text>
<circle cx="606.7" cy="336" r="6.5" fill="#16a34a" stroke="#ffffff" stroke-width="1.5"/>
<text x="606.7" y="325.0" font-family="Segoe UI, Helvetica, Arial, sans-serif" font-size="11.5" fill="#16a34a" text-anchor="middle" font-weight="bold">z = 2</text>
<text x="880.0" y="340.0" font-family="Segoe UI, Helvetica, Arial, sans-serif" font-size="12.5" fill="#dc2626" text-anchor="end" font-weight="bold">birim kök → 1 fark</text>
<line x1="300" y1="378" x2="760" y2="378" stroke="#d1d5db"/>
<text x="300.0" y="392.0" font-family="Segoe UI, Helvetica, Arial, sans-serif" font-size="11" fill="#6b7280" text-anchor="middle" font-weight="normal">−6</text>
<text x="338.3" y="392.0" font-family="Segoe UI, Helvetica, Arial, sans-serif" font-size="11" fill="#6b7280" text-anchor="middle" font-weight="normal">−5</text>
<text x="376.7" y="392.0" font-family="Segoe UI, Helvetica, Arial, sans-serif" font-size="11" fill="#6b7280" text-anchor="middle" font-weight="normal">−4</text>
<text x="415.0" y="392.0" font-family="Segoe UI, Helvetica, Arial, sans-serif" font-size="11" fill="#6b7280" text-anchor="middle" font-weight="normal">−3</text>
<text x="453.3" y="392.0" font-family="Segoe UI, Helvetica, Arial, sans-serif" font-size="11" fill="#6b7280" text-anchor="middle" font-weight="normal">−2</text>
<text x="491.7" y="392.0" font-family="Segoe UI, Helvetica, Arial, sans-serif" font-size="11" fill="#6b7280" text-anchor="middle" font-weight="normal">−1</text>
<text x="530.0" y="392.0" font-family="Segoe UI, Helvetica, Arial, sans-serif" font-size="11" fill="#6b7280" text-anchor="middle" font-weight="normal">0</text>
<text x="568.3" y="392.0" font-family="Segoe UI, Helvetica, Arial, sans-serif" font-size="11" fill="#6b7280" text-anchor="middle" font-weight="normal">1</text>
<text x="606.7" y="392.0" font-family="Segoe UI, Helvetica, Arial, sans-serif" font-size="11" fill="#6b7280" text-anchor="middle" font-weight="normal">2</text>
<text x="645.0" y="392.0" font-family="Segoe UI, Helvetica, Arial, sans-serif" font-size="11" fill="#6b7280" text-anchor="middle" font-weight="normal">3</text>
<text x="683.3" y="392.0" font-family="Segoe UI, Helvetica, Arial, sans-serif" font-size="11" fill="#6b7280" text-anchor="middle" font-weight="normal">4</text>
<text x="721.7" y="392.0" font-family="Segoe UI, Helvetica, Arial, sans-serif" font-size="11" fill="#6b7280" text-anchor="middle" font-weight="normal">5</text>
<text x="760.0" y="392.0" font-family="Segoe UI, Helvetica, Arial, sans-serif" font-size="11" fill="#6b7280" text-anchor="middle" font-weight="normal">6</text>
<text x="530.0" y="412.0" font-family="Segoe UI, Helvetica, Arial, sans-serif" font-size="11.5" fill="#6b7280" text-anchor="middle" font-weight="normal">kökün değeri z (sayı doğrusu)</text>
</svg>