<svg xmlns="http://www.w3.org/2000/svg" width="900" height="430" viewBox="0 0 900 430">
<title>Prophet ve SARIMA test karşılaştırması</title>
<rect x="0.5" y="0.5" width="899" height="429" rx="10" fill="#ffffff" stroke="#d1d5db"/>
<text x="450" y="30" font-family="Segoe UI, Helvetica, Arial, sans-serif" font-size="18" fill="#1f2937" text-anchor="middle" font-weight="bold">1960 Test Yılı: Prophet ve SARIMA Tahminleri</text>
<text x="450" y="50" font-family="Segoe UI, Helvetica, Arial, sans-serif" font-size="12.5" fill="#6b7280" text-anchor="middle">Tüm modeller yalnızca 1949–1959 verisiyle eğitildi; yaz tepesine en çok, dalga genliği seviyeyle büyüyen modeller yaklaşır</text>
<rect x="40" y="70" width="540" height="280" fill="#f9fafb"/>
<line x1="85" y1="314.0" x2="565" y2="314.0" stroke="#e5e7eb"/>
<text x="78" y="318.0" font-family="Segoe UI, Helvetica, Arial, sans-serif" font-size="10.5" fill="#6b7280" text-anchor="end">400</text>
<line x1="85" y1="269.0" x2="565" y2="269.0" stroke="#e5e7eb"/>
<text x="78" y="273.0" font-family="Segoe UI, Helvetica, Arial, sans-serif" font-size="10.5" fill="#6b7280" text-anchor="end">450</text>
<line x1="85" y1="224.0" x2="565" y2="224.0" stroke="#e5e7eb"/>
<text x="78" y="228.0" font-family="Segoe UI, Helvetica, Arial, sans-serif" font-size="10.5" fill="#6b7280" text-anchor="end">500</text>
<line x1="85" y1="179.0" x2="565" y2="179.0" stroke="#e5e7eb"/>
<text x="78" y="183.0" font-family="Segoe UI, Helvetica, Arial, sans-serif" font-size="10.5" fill="#6b7280" text-anchor="end">550</text>
<line x1="85" y1="134.0" x2="565" y2="134.0" stroke="#e5e7eb"/>
<text x="78" y="138.0" font-family="Segoe UI, Helvetica, Arial, sans-serif" font-size="10.5" fill="#6b7280" text-anchor="end">600</text>
<line x1="85" y1="89.0" x2="565" y2="89.0" stroke="#e5e7eb"/>
<text x="78" y="93.0" font-family="Segoe UI, Helvetica, Arial, sans-serif" font-size="10.5" fill="#6b7280" text-anchor="end">650</text>
<line x1="85" y1="350" x2="565" y2="350" stroke="#6b7280" stroke-width="1.2"/>
<text x="85.0" y="366" font-family="Segoe UI, Helvetica, Arial, sans-serif" font-size="10.5" fill="#6b7280" text-anchor="middle">Oca</text>
<text x="127.7" y="366" font-family="Segoe UI, Helvetica, Arial, sans-serif" font-size="10.5" fill="#6b7280" text-anchor="middle">Şub</text>
<text x="170.5" y="366" font-family="Segoe UI, Helvetica, Arial, sans-serif" font-size="10.5" fill="#6b7280" text-anchor="middle">Mar</text>
<text x="213.2" y="366" font-family="Segoe UI, Helvetica, Arial, sans-serif" font-size="10.5" fill="#6b7280" text-anchor="middle">Nis</text>
<text x="255.9" y="366" font-family="Segoe UI, Helvetica, Arial, sans-serif" font-size="10.5" fill="#6b7280" text-anchor="middle">May</text>
<text x="298.6" y="366" font-family="Segoe UI, Helvetica, Arial, sans-serif" font-size="10.5" fill="#6b7280" text-anchor="middle">Haz</text>
<text x="341.4" y="366" font-family="Segoe UI, Helvetica, Arial, sans-serif" font-size="10.5" fill="#6b7280" text-anchor="middle">Tem</text>
<text x="384.1" y="366" font-family="Segoe UI, Helvetica, Arial, sans-serif" font-size="10.5" fill="#6b7280" text-anchor="middle">Ağu</text>
<text x="426.8" y="366" font-family="Segoe UI, Helvetica, Arial, sans-serif" font-size="10.5" fill="#6b7280" text-anchor="middle">Eyl</text>
<text x="469.5" y="366" font-family="Segoe UI, Helvetica, Arial, sans-serif" font-size="10.5" fill="#6b7280" text-anchor="middle">Eki</text>
<text x="512.3" y="366" font-family="Segoe UI, Helvetica, Arial, sans-serif" font-size="10.5" fill="#6b7280" text-anchor="middle">Kas</text>
<text x="555.0" y="366" font-family="Segoe UI, Helvetica, Arial, sans-serif" font-size="10.5" fill="#6b7280" text-anchor="middle">Ara</text>
<text x="46" y="64" font-family="Segoe UI, Helvetica, Arial, sans-serif" font-size="10.5" fill="#6b7280">bin yolcu</text>
<polyline points="85.0,291.9 127.7,295.0 170.5,262.9 213.2,268.0 255.9,265.7 298.6,230.0 341.4,202.5 384.1,199.4 426.8,236.7 469.5,267.1 512.3,294.1 555.0,271.1" fill="none" stroke="#ea580c" stroke-width="2" stroke-dasharray="6 4"/>
<polyline points="85.0,311.8 127.7,320.1 170.5,263.8 213.2,276.4 255.9,275.4 298.6,205.1 341.4,162.0 384.1,158.2 426.8,227.0 469.5,283.9 512.3,332.1 555.0,295.6" fill="none" stroke="#7c3aed" stroke-width="2.2"/>
<polyline points="85.0,296.6 127.7,315.0 170.5,254.1 213.2,265.0 255.9,248.1 298.6,181.6 341.4,114.0 384.1,106.9 426.8,199.9 469.5,257.9 512.3,308.0 555.0,266.9" fill="none" stroke="#2563eb" stroke-width="2.2"/>
<polyline points="85.0,298.7 127.7,322.1 170.5,296.9 213.2,259.1 255.9,249.2 298.6,192.5 341.4,114.2 384.1,128.6 426.8,216.8 469.5,259.1 512.3,323.0 555.0,285.2" fill="none" stroke="#dc2626" stroke-width="1.2"/>
<circle cx="85.0" cy="298.7" r="4" fill="#dc2626" stroke="#ffffff" stroke-width="1"/>
<circle cx="127.7" cy="322.1" r="4" fill="#dc2626" stroke="#ffffff" stroke-width="1"/>
<circle cx="170.5" cy="296.9" r="4" fill="#dc2626" stroke="#ffffff" stroke-width="1"/>
<circle cx="213.2" cy="259.1" r="4" fill="#dc2626" stroke="#ffffff" stroke-width="1"/>
<circle cx="255.9" cy="249.2" r="4" fill="#dc2626" stroke="#ffffff" stroke-width="1"/>
<circle cx="298.6" cy="192.5" r="4" fill="#dc2626" stroke="#ffffff" stroke-width="1"/>
<circle cx="341.4" cy="114.2" r="4" fill="#dc2626" stroke="#ffffff" stroke-width="1"/>
<circle cx="384.1" cy="128.6" r="4" fill="#dc2626" stroke="#ffffff" stroke-width="1"/>
<circle cx="426.8" cy="216.8" r="4" fill="#dc2626" stroke="#ffffff" stroke-width="1"/>
<circle cx="469.5" cy="259.1" r="4" fill="#dc2626" stroke="#ffffff" stroke-width="1"/>
<circle cx="512.3" cy="323.0" r="4" fill="#dc2626" stroke="#ffffff" stroke-width="1"/>
<circle cx="555.0" cy="285.2" r="4" fill="#dc2626" stroke="#ffffff" stroke-width="1"/>
<line x1="351.4" y1="114.2" x2="351.4" y2="202.5" stroke="#9ca3af" stroke-width="1"/>
<text x="406.1" y="90.8" font-family="Segoe UI, Helvetica, Arial, sans-serif" font-size="10.5" fill="#ea580c">Temmuz (gri çizgi): toplamsal</text>
<text x="406.1" y="104.8" font-family="Segoe UI, Helvetica, Arial, sans-serif" font-size="10.5" fill="#ea580c">model 98 bin eksik tahmin</text>
<line x1="100" y1="84" x2="122" y2="84" stroke="#dc2626" stroke-width="2.5"/>
<text x="128" y="88" font-family="Segoe UI, Helvetica, Arial, sans-serif" font-size="11" fill="#1f2937">gerçek (1960)</text>
<line x1="100" y1="101" x2="122" y2="101" stroke="#2563eb" stroke-width="2.5"/>
<text x="128" y="105" font-family="Segoe UI, Helvetica, Arial, sans-serif" font-size="11" fill="#1f2937">SARIMA, log (Bölüm 8.3)</text>
<line x1="100" y1="118" x2="122" y2="118" stroke="#7c3aed" stroke-width="2.5"/>
<text x="128" y="122" font-family="Segoe UI, Helvetica, Arial, sans-serif" font-size="11" fill="#1f2937">Prophet çarpımsal</text>
<line x1="100" y1="135" x2="122" y2="135" stroke="#ea580c" stroke-width="2.5" stroke-dasharray="6 4"/>
<text x="128" y="139" font-family="Segoe UI, Helvetica, Arial, sans-serif" font-size="11" fill="#1f2937">Prophet toplamsal</text>
<text x="735" y="82" font-family="Segoe UI, Helvetica, Arial, sans-serif" font-size="13" fill="#1f2937" text-anchor="middle" font-weight="bold">Test metrikleri (12 ay)</text>
<text x="605" y="110" font-family="Segoe UI, Helvetica, Arial, sans-serif" font-size="11.5" fill="#6b7280" text-anchor="start" font-weight="bold">Model</text>
<text x="745" y="110" font-family="Segoe UI, Helvetica, Arial, sans-serif" font-size="11.5" fill="#6b7280" text-anchor="end" font-weight="bold">MAE</text>
<text x="795" y="110" font-family="Segoe UI, Helvetica, Arial, sans-serif" font-size="11.5" fill="#6b7280" text-anchor="end" font-weight="bold">RMSE</text>
<text x="850" y="110" font-family="Segoe UI, Helvetica, Arial, sans-serif" font-size="11.5" fill="#6b7280" text-anchor="end" font-weight="bold">MAPE</text>
<line x1="605" y1="117" x2="855" y2="117" stroke="#d1d5db"/>
<text x="605" y="138" font-family="Segoe UI, Helvetica, Arial, sans-serif" font-size="11.5" fill="#2563eb" font-weight="bold">SARIMA (log)</text>
<text x="745" y="138" font-family="Segoe UI, Helvetica, Arial, sans-serif" font-size="11.5" fill="#1f2937" text-anchor="end">13.26</text>
<text x="795" y="138" font-family="Segoe UI, Helvetica, Arial, sans-serif" font-size="11.5" fill="#1f2937" text-anchor="end">18.59</text>
<text x="850" y="138" font-family="Segoe UI, Helvetica, Arial, sans-serif" font-size="11.5" fill="#1f2937" text-anchor="end">2.90</text>
<text x="605" y="164" font-family="Segoe UI, Helvetica, Arial, sans-serif" font-size="11.5" fill="#7c3aed" font-weight="bold">Prophet çarpımsal</text>
<text x="745" y="164" font-family="Segoe UI, Helvetica, Arial, sans-serif" font-size="11.5" fill="#1f2937" text-anchor="end">21.87</text>
<text x="795" y="164" font-family="Segoe UI, Helvetica, Arial, sans-serif" font-size="11.5" fill="#1f2937" text-anchor="end">25.83</text>
<text x="850" y="164" font-family="Segoe UI, Helvetica, Arial, sans-serif" font-size="11.5" fill="#1f2937" text-anchor="end">4.44</text>
<text x="605" y="190" font-family="Segoe UI, Helvetica, Arial, sans-serif" font-size="11.5" fill="#ea580c" font-weight="bold">Prophet toplamsal</text>
<text x="745" y="190" font-family="Segoe UI, Helvetica, Arial, sans-serif" font-size="11.5" fill="#1f2937" text-anchor="end">33.43</text>
<text x="795" y="190" font-family="Segoe UI, Helvetica, Arial, sans-serif" font-size="11.5" fill="#1f2937" text-anchor="end">43.05</text>
<text x="850" y="190" font-family="Segoe UI, Helvetica, Arial, sans-serif" font-size="11.5" fill="#1f2937" text-anchor="end">6.61</text>
<text x="605" y="216" font-family="Segoe UI, Helvetica, Arial, sans-serif" font-size="11.5" fill="#6b7280" font-weight="bold">Mevsimsel naive</text>
<text x="745" y="216" font-family="Segoe UI, Helvetica, Arial, sans-serif" font-size="11.5" fill="#1f2937" text-anchor="end">47.83</text>
<text x="795" y="216" font-family="Segoe UI, Helvetica, Arial, sans-serif" font-size="11.5" fill="#1f2937" text-anchor="end">50.71</text>
<text x="850" y="216" font-family="Segoe UI, Helvetica, Arial, sans-serif" font-size="11.5" fill="#1f2937" text-anchor="end">9.99</text>
<text x="605" y="260" font-family="Segoe UI, Helvetica, Arial, sans-serif" font-size="11" fill="#6b7280">MAPE yüzde (%) cinsindendir;</text>
<text x="605" y="276" font-family="Segoe UI, Helvetica, Arial, sans-serif" font-size="11" fill="#6b7280">diğerleri bin yolcu. Küçük değer daha iyidir.</text>
<text x="450" y="416" font-family="Segoe UI, Helvetica, Arial, sans-serif" font-size="11.5" fill="#6b7280" text-anchor="middle" font-style="italic">Mart: 1949–1959 arasındaki 11 yılın 10'unda Mart, Nisan'dan yüksekti; modeller bu deseni sürdürdü, 1960 ise istisna oldu.</text>
</svg>