<svg xmlns="http://www.w3.org/2000/svg" width="900" height="430" viewBox="0 0 900 430">
<title>Gradient boosting ile ardışık artık düzeltme</title>
<rect x="0.5" y="0.5" width="899" height="429" rx="10" fill="#ffffff" stroke="#d1d5db"/>
<text x="450.0" y="30.0" font-family="Segoe UI, Helvetica, Arial, sans-serif" font-size="18" fill="#1f2937" text-anchor="middle" font-weight="bold">Gradient Boosting: Her Yeni Ağaç Öncekilerin Artıklarını Düzeltir</text>
<text x="450.0" y="50.0" font-family="Segoe UI, Helvetica, Arial, sans-serif" font-size="12.5" fill="#6b7280" text-anchor="middle" font-weight="normal">Ağaçlar sırayla kurulur; m. ağaç, ilk m−1 ağacın toplamının yaptığı hatayı (artığı) öğrenir</text>
<rect x="30.0" y="95" width="180" height="165" fill="#f9fafb" stroke="none"/>
<line x1="30.0" y1="260" x2="218.0" y2="260" stroke="#6b7280" stroke-width="1.2"/>
<line x1="30.0" y1="260" x2="30.0" y2="89" stroke="#6b7280" stroke-width="1.2"/>
<polygon points="218.0,256 225.0,260 218.0,264" fill="#6b7280"/>
<polygon points="26.0,89 30.0,82 34.0,89" fill="#6b7280"/>
<text x="210.0" y="278.0" font-family="Segoe UI, Helvetica, Arial, sans-serif" font-size="11" fill="#6b7280" text-anchor="end" font-weight="normal">x</text>
<circle cx="30.0" cy="213.1" r="2.8" fill="#2563eb" opacity="0.8"/>
<circle cx="34.6" cy="201.7" r="2.8" fill="#2563eb" opacity="0.8"/>
<circle cx="39.2" cy="180.7" r="2.8" fill="#2563eb" opacity="0.8"/>
<circle cx="43.8" cy="180.9" r="2.8" fill="#2563eb" opacity="0.8"/>
<circle cx="48.5" cy="191.3" r="2.8" fill="#2563eb" opacity="0.8"/>
<circle cx="53.1" cy="174.3" r="2.8" fill="#2563eb" opacity="0.8"/>
<circle cx="57.7" cy="175.0" r="2.8" fill="#2563eb" opacity="0.8"/>
<circle cx="62.3" cy="166.9" r="2.8" fill="#2563eb" opacity="0.8"/>
<circle cx="66.9" cy="178.6" r="2.8" fill="#2563eb" opacity="0.8"/>
<circle cx="71.5" cy="165.6" r="2.8" fill="#2563eb" opacity="0.8"/>
<circle cx="76.2" cy="167.3" r="2.8" fill="#2563eb" opacity="0.8"/>
<circle cx="80.8" cy="160.4" r="2.8" fill="#2563eb" opacity="0.8"/>
<circle cx="85.4" cy="173.1" r="2.8" fill="#2563eb" opacity="0.8"/>
<circle cx="90.0" cy="176.1" r="2.8" fill="#2563eb" opacity="0.8"/>
<circle cx="94.6" cy="195.2" r="2.8" fill="#2563eb" opacity="0.8"/>
<circle cx="99.2" cy="172.9" r="2.8" fill="#2563eb" opacity="0.8"/>
<circle cx="103.8" cy="207.5" r="2.8" fill="#2563eb" opacity="0.8"/>
<circle cx="108.5" cy="189.6" r="2.8" fill="#2563eb" opacity="0.8"/>
<circle cx="113.1" cy="203.0" r="2.8" fill="#2563eb" opacity="0.8"/>
<circle cx="117.7" cy="208.9" r="2.8" fill="#2563eb" opacity="0.8"/>
<circle cx="122.3" cy="208.0" r="2.8" fill="#2563eb" opacity="0.8"/>
<circle cx="126.9" cy="207.5" r="2.8" fill="#2563eb" opacity="0.8"/>
<circle cx="131.5" cy="197.8" r="2.8" fill="#2563eb" opacity="0.8"/>
<circle cx="136.2" cy="197.9" r="2.8" fill="#2563eb" opacity="0.8"/>
<circle cx="140.8" cy="181.6" r="2.8" fill="#2563eb" opacity="0.8"/>
<circle cx="145.4" cy="199.6" r="2.8" fill="#2563eb" opacity="0.8"/>
<circle cx="150.0" cy="179.5" r="2.8" fill="#2563eb" opacity="0.8"/>
<circle cx="154.6" cy="178.4" r="2.8" fill="#2563eb" opacity="0.8"/>
<circle cx="159.2" cy="158.4" r="2.8" fill="#2563eb" opacity="0.8"/>
<circle cx="163.8" cy="171.2" r="2.8" fill="#2563eb" opacity="0.8"/>
<circle cx="168.5" cy="150.6" r="2.8" fill="#2563eb" opacity="0.8"/>
<circle cx="173.1" cy="139.3" r="2.8" fill="#2563eb" opacity="0.8"/>
<circle cx="177.7" cy="145.1" r="2.8" fill="#2563eb" opacity="0.8"/>
<circle cx="182.3" cy="121.8" r="2.8" fill="#2563eb" opacity="0.8"/>
<circle cx="186.9" cy="123.4" r="2.8" fill="#2563eb" opacity="0.8"/>
<circle cx="191.5" cy="114.6" r="2.8" fill="#2563eb" opacity="0.8"/>
<circle cx="196.2" cy="113.5" r="2.8" fill="#2563eb" opacity="0.8"/>
<circle cx="200.8" cy="127.5" r="2.8" fill="#2563eb" opacity="0.8"/>
<circle cx="205.4" cy="127.5" r="2.8" fill="#2563eb" opacity="0.8"/>
<circle cx="210.0" cy="125.7" r="2.8" fill="#2563eb" opacity="0.8"/>
<polyline points="30.0,179.6 34.6,179.6 39.2,179.6 43.8,179.6 48.5,179.6 53.1,179.6 57.7,179.6 62.3,179.6 66.9,179.6 71.5,179.6 76.2,179.6 80.8,179.6 85.4,179.6 90.0,179.6 94.6,179.6 99.2,179.6 101.5,179.6 101.5,192.1 103.8,192.1 108.5,192.1 113.1,192.1 117.7,192.1 122.3,192.1 126.9,192.1 131.5,192.1 136.2,192.1 140.8,192.1 145.4,192.1 150.0,192.1 154.6,192.1 159.2,192.1 163.8,192.1 166.2,192.1 166.2,145.0 168.5,145.0 173.1,145.0 177.7,145.0 180.0,145.0 180.0,122.0 182.3,122.0 186.9,122.0 191.5,122.0 196.2,122.0 200.8,122.0 205.4,122.0 210.0,122.0" fill="none" stroke="#ea580c" stroke-width="2.4" stroke-linejoin="round"/>
<text x="36.0" y="105.0" font-family="Segoe UI, Helvetica, Arial, sans-serif" font-size="11" fill="#6b7280" text-anchor="start" font-weight="normal">• veri   — ağaç 1</text>
<text x="120.0" y="292.0" font-family="Segoe UI, Helvetica, Arial, sans-serif" font-size="14" fill="#1f2937" text-anchor="middle" font-weight="bold">(1) Ağaç 1</text>
<text x="120.0" y="311.0" font-family="Segoe UI, Helvetica, Arial, sans-serif" font-size="12" fill="#6b7280" text-anchor="middle" font-weight="normal">Başlangıç tahmini + ilk ağaç</text>
<line x1="218.0" y1="177.5" x2="236.0" y2="177.5" stroke="#1f2937" stroke-width="1.8"/>
<polygon points="236.0,172.5 244.0,177.5 236.0,182.5" fill="#1f2937"/>
<text x="231.0" y="168.5" font-family="Segoe UI, Helvetica, Arial, sans-serif" font-size="10.5" fill="#dc2626" text-anchor="middle" font-weight="bold">artık</text>
<rect x="250.0" y="95" width="180" height="165" fill="#f9fafb" stroke="none"/>
<line x1="250.0" y1="260" x2="438.0" y2="260" stroke="#6b7280" stroke-width="1.2"/>
<line x1="250.0" y1="260" x2="250.0" y2="89" stroke="#6b7280" stroke-width="1.2"/>
<polygon points="438.0,256 445.0,260 438.0,264" fill="#6b7280"/>
<polygon points="246.0,89 250.0,82 254.0,89" fill="#6b7280"/>
<text x="430.0" y="278.0" font-family="Segoe UI, Helvetica, Arial, sans-serif" font-size="11" fill="#6b7280" text-anchor="end" font-weight="normal">x</text>
<line x1="250.0" y1="177.5" x2="430.0" y2="177.5" stroke="#d1d5db" stroke-dasharray="3 3"/>
<line x1="250.0" y1="177.5" x2="250.0" y2="238.5" stroke="#dc2626" stroke-width="1" opacity="0.5"/>
<circle cx="250.0" cy="238.5" r="2.6" fill="#dc2626" opacity="0.85"/>
<line x1="254.6" y1="177.5" x2="254.6" y2="217.7" stroke="#dc2626" stroke-width="1" opacity="0.5"/>
<circle cx="254.6" cy="217.7" r="2.6" fill="#dc2626" opacity="0.85"/>
<line x1="259.2" y1="177.5" x2="259.2" y2="179.6" stroke="#dc2626" stroke-width="1" opacity="0.5"/>
<circle cx="259.2" cy="179.6" r="2.6" fill="#dc2626" opacity="0.85"/>
<line x1="263.8" y1="177.5" x2="263.8" y2="179.9" stroke="#dc2626" stroke-width="1" opacity="0.5"/>
<circle cx="263.8" cy="179.9" r="2.6" fill="#dc2626" opacity="0.85"/>
<line x1="268.5" y1="177.5" x2="268.5" y2="198.8" stroke="#dc2626" stroke-width="1" opacity="0.5"/>
<circle cx="268.5" cy="198.8" r="2.6" fill="#dc2626" opacity="0.85"/>
<line x1="273.1" y1="177.5" x2="273.1" y2="168.0" stroke="#dc2626" stroke-width="1" opacity="0.5"/>
<circle cx="273.1" cy="168.0" r="2.6" fill="#dc2626" opacity="0.85"/>
<line x1="277.7" y1="177.5" x2="277.7" y2="169.1" stroke="#dc2626" stroke-width="1" opacity="0.5"/>
<circle cx="277.7" cy="169.1" r="2.6" fill="#dc2626" opacity="0.85"/>
<line x1="282.3" y1="177.5" x2="282.3" y2="154.5" stroke="#dc2626" stroke-width="1" opacity="0.5"/>
<circle cx="282.3" cy="154.5" r="2.6" fill="#dc2626" opacity="0.85"/>
<line x1="286.9" y1="177.5" x2="286.9" y2="175.7" stroke="#dc2626" stroke-width="1" opacity="0.5"/>
<circle cx="286.9" cy="175.7" r="2.6" fill="#dc2626" opacity="0.85"/>
<line x1="291.5" y1="177.5" x2="291.5" y2="152.1" stroke="#dc2626" stroke-width="1" opacity="0.5"/>
<circle cx="291.5" cy="152.1" r="2.6" fill="#dc2626" opacity="0.85"/>
<line x1="296.2" y1="177.5" x2="296.2" y2="155.1" stroke="#dc2626" stroke-width="1" opacity="0.5"/>
<circle cx="296.2" cy="155.1" r="2.6" fill="#dc2626" opacity="0.85"/>
<line x1="300.8" y1="177.5" x2="300.8" y2="142.6" stroke="#dc2626" stroke-width="1" opacity="0.5"/>
<circle cx="300.8" cy="142.6" r="2.6" fill="#dc2626" opacity="0.85"/>
<line x1="305.4" y1="177.5" x2="305.4" y2="165.8" stroke="#dc2626" stroke-width="1" opacity="0.5"/>
<circle cx="305.4" cy="165.8" r="2.6" fill="#dc2626" opacity="0.85"/>
<line x1="310.0" y1="177.5" x2="310.0" y2="171.2" stroke="#dc2626" stroke-width="1" opacity="0.5"/>
<circle cx="310.0" cy="171.2" r="2.6" fill="#dc2626" opacity="0.85"/>
<line x1="314.6" y1="177.5" x2="314.6" y2="206.0" stroke="#dc2626" stroke-width="1" opacity="0.5"/>
<circle cx="314.6" cy="206.0" r="2.6" fill="#dc2626" opacity="0.85"/>
<line x1="319.2" y1="177.5" x2="319.2" y2="165.4" stroke="#dc2626" stroke-width="1" opacity="0.5"/>
<circle cx="319.2" cy="165.4" r="2.6" fill="#dc2626" opacity="0.85"/>
<line x1="323.8" y1="177.5" x2="323.8" y2="205.5" stroke="#dc2626" stroke-width="1" opacity="0.5"/>
<circle cx="323.8" cy="205.5" r="2.6" fill="#dc2626" opacity="0.85"/>
<line x1="328.5" y1="177.5" x2="328.5" y2="173.0" stroke="#dc2626" stroke-width="1" opacity="0.5"/>
<circle cx="328.5" cy="173.0" r="2.6" fill="#dc2626" opacity="0.85"/>
<line x1="333.1" y1="177.5" x2="333.1" y2="197.3" stroke="#dc2626" stroke-width="1" opacity="0.5"/>
<circle cx="333.1" cy="197.3" r="2.6" fill="#dc2626" opacity="0.85"/>
<line x1="337.7" y1="177.5" x2="337.7" y2="208.1" stroke="#dc2626" stroke-width="1" opacity="0.5"/>
<circle cx="337.7" cy="208.1" r="2.6" fill="#dc2626" opacity="0.85"/>
<line x1="342.3" y1="177.5" x2="342.3" y2="206.5" stroke="#dc2626" stroke-width="1" opacity="0.5"/>
<circle cx="342.3" cy="206.5" r="2.6" fill="#dc2626" opacity="0.85"/>
<line x1="346.9" y1="177.5" x2="346.9" y2="205.5" stroke="#dc2626" stroke-width="1" opacity="0.5"/>
<circle cx="346.9" cy="205.5" r="2.6" fill="#dc2626" opacity="0.85"/>
<line x1="351.5" y1="177.5" x2="351.5" y2="188.0" stroke="#dc2626" stroke-width="1" opacity="0.5"/>
<circle cx="351.5" cy="188.0" r="2.6" fill="#dc2626" opacity="0.85"/>
<line x1="356.2" y1="177.5" x2="356.2" y2="188.1" stroke="#dc2626" stroke-width="1" opacity="0.5"/>
<circle cx="356.2" cy="188.1" r="2.6" fill="#dc2626" opacity="0.85"/>
<line x1="360.8" y1="177.5" x2="360.8" y2="158.5" stroke="#dc2626" stroke-width="1" opacity="0.5"/>
<circle cx="360.8" cy="158.5" r="2.6" fill="#dc2626" opacity="0.85"/>
<line x1="365.4" y1="177.5" x2="365.4" y2="191.2" stroke="#dc2626" stroke-width="1" opacity="0.5"/>
<circle cx="365.4" cy="191.2" r="2.6" fill="#dc2626" opacity="0.85"/>
<line x1="370.0" y1="177.5" x2="370.0" y2="154.7" stroke="#dc2626" stroke-width="1" opacity="0.5"/>
<circle cx="370.0" cy="154.7" r="2.6" fill="#dc2626" opacity="0.85"/>
<line x1="374.6" y1="177.5" x2="374.6" y2="152.6" stroke="#dc2626" stroke-width="1" opacity="0.5"/>
<circle cx="374.6" cy="152.6" r="2.6" fill="#dc2626" opacity="0.85"/>
<line x1="379.2" y1="177.5" x2="379.2" y2="116.3" stroke="#dc2626" stroke-width="1" opacity="0.5"/>
<circle cx="379.2" cy="116.3" r="2.6" fill="#dc2626" opacity="0.85"/>
<line x1="383.8" y1="177.5" x2="383.8" y2="139.6" stroke="#dc2626" stroke-width="1" opacity="0.5"/>
<circle cx="383.8" cy="139.6" r="2.6" fill="#dc2626" opacity="0.85"/>
<line x1="388.5" y1="177.5" x2="388.5" y2="187.7" stroke="#dc2626" stroke-width="1" opacity="0.5"/>
<circle cx="388.5" cy="187.7" r="2.6" fill="#dc2626" opacity="0.85"/>
<line x1="393.1" y1="177.5" x2="393.1" y2="167.2" stroke="#dc2626" stroke-width="1" opacity="0.5"/>
<circle cx="393.1" cy="167.2" r="2.6" fill="#dc2626" opacity="0.85"/>
<line x1="397.7" y1="177.5" x2="397.7" y2="177.6" stroke="#dc2626" stroke-width="1" opacity="0.5"/>
<circle cx="397.7" cy="177.6" r="2.6" fill="#dc2626" opacity="0.85"/>
<line x1="402.3" y1="177.5" x2="402.3" y2="177.1" stroke="#dc2626" stroke-width="1" opacity="0.5"/>
<circle cx="402.3" cy="177.1" r="2.6" fill="#dc2626" opacity="0.85"/>
<line x1="406.9" y1="177.5" x2="406.9" y2="180.1" stroke="#dc2626" stroke-width="1" opacity="0.5"/>
<circle cx="406.9" cy="180.1" r="2.6" fill="#dc2626" opacity="0.85"/>
<line x1="411.5" y1="177.5" x2="411.5" y2="164.0" stroke="#dc2626" stroke-width="1" opacity="0.5"/>
<circle cx="411.5" cy="164.0" r="2.6" fill="#dc2626" opacity="0.85"/>
<line x1="416.2" y1="177.5" x2="416.2" y2="162.1" stroke="#dc2626" stroke-width="1" opacity="0.5"/>
<circle cx="416.2" cy="162.1" r="2.6" fill="#dc2626" opacity="0.85"/>
<line x1="420.8" y1="177.5" x2="420.8" y2="187.5" stroke="#dc2626" stroke-width="1" opacity="0.5"/>
<circle cx="420.8" cy="187.5" r="2.6" fill="#dc2626" opacity="0.85"/>
<line x1="425.4" y1="177.5" x2="425.4" y2="187.5" stroke="#dc2626" stroke-width="1" opacity="0.5"/>
<circle cx="425.4" cy="187.5" r="2.6" fill="#dc2626" opacity="0.85"/>
<line x1="430.0" y1="177.5" x2="430.0" y2="184.2" stroke="#dc2626" stroke-width="1" opacity="0.5"/>
<circle cx="430.0" cy="184.2" r="2.6" fill="#dc2626" opacity="0.85"/>
<polyline points="250.0,238.5 252.3,238.5 252.3,217.7 254.6,217.7 256.9,217.7 256.9,179.4 259.2,179.4 263.8,179.4 268.5,179.4 273.1,179.4 277.7,179.4 282.3,179.4 286.9,179.4 291.5,179.4 296.2,179.4 300.8,179.4 305.4,179.4 310.0,179.4 314.6,179.4 319.2,179.4 323.8,179.4 328.5,179.4 333.1,179.4 337.7,179.4 342.3,179.4 346.9,179.4 351.5,179.4 356.2,179.4 360.8,179.4 365.4,179.4 367.7,179.4 367.7,167.0 370.0,167.0 374.6,167.0 379.2,167.0 383.8,167.0 388.5,167.0 393.1,167.0 397.7,167.0 402.3,167.0 406.9,167.0 411.5,167.0 416.2,167.0 420.8,167.0 425.4,167.0 430.0,167.0" fill="none" stroke="#7c3aed" stroke-width="2.4" stroke-linejoin="round"/>
<text x="256.0" y="105.0" font-family="Segoe UI, Helvetica, Arial, sans-serif" font-size="11" fill="#6b7280" text-anchor="start" font-weight="normal">• artık   — ağaç 2</text>
<text x="340.0" y="292.0" font-family="Segoe UI, Helvetica, Arial, sans-serif" font-size="14" fill="#1f2937" text-anchor="middle" font-weight="bold">(2) Ağaç 2</text>
<text x="340.0" y="311.0" font-family="Segoe UI, Helvetica, Arial, sans-serif" font-size="12" fill="#6b7280" text-anchor="middle" font-weight="normal">1. adımın artıklarını öğrenir</text>
<line x1="438.0" y1="177.5" x2="456.0" y2="177.5" stroke="#1f2937" stroke-width="1.8"/>
<polygon points="456.0,172.5 464.0,177.5 456.0,182.5" fill="#1f2937"/>
<text x="451.0" y="168.5" font-family="Segoe UI, Helvetica, Arial, sans-serif" font-size="10.5" fill="#dc2626" text-anchor="middle" font-weight="bold">artık</text>
<rect x="470.0" y="95" width="180" height="165" fill="#f9fafb" stroke="none"/>
<line x1="470.0" y1="260" x2="658.0" y2="260" stroke="#6b7280" stroke-width="1.2"/>
<line x1="470.0" y1="260" x2="470.0" y2="89" stroke="#6b7280" stroke-width="1.2"/>
<polygon points="658.0,256 665.0,260 658.0,264" fill="#6b7280"/>
<polygon points="466.0,89 470.0,82 474.0,89" fill="#6b7280"/>
<text x="650.0" y="278.0" font-family="Segoe UI, Helvetica, Arial, sans-serif" font-size="11" fill="#6b7280" text-anchor="end" font-weight="normal">x</text>
<line x1="470.0" y1="177.5" x2="650.0" y2="177.5" stroke="#d1d5db" stroke-dasharray="3 3"/>
<line x1="470.0" y1="177.5" x2="470.0" y2="177.5" stroke="#dc2626" stroke-width="1" opacity="0.5"/>
<circle cx="470.0" cy="177.5" r="2.6" fill="#dc2626" opacity="0.85"/>
<line x1="474.6" y1="177.5" x2="474.6" y2="177.5" stroke="#dc2626" stroke-width="1" opacity="0.5"/>
<circle cx="474.6" cy="177.5" r="2.6" fill="#dc2626" opacity="0.85"/>
<line x1="479.2" y1="177.5" x2="479.2" y2="177.7" stroke="#dc2626" stroke-width="1" opacity="0.5"/>
<circle cx="479.2" cy="177.7" r="2.6" fill="#dc2626" opacity="0.85"/>
<line x1="483.8" y1="177.5" x2="483.8" y2="178.0" stroke="#dc2626" stroke-width="1" opacity="0.5"/>
<circle cx="483.8" cy="178.0" r="2.6" fill="#dc2626" opacity="0.85"/>
<line x1="488.5" y1="177.5" x2="488.5" y2="196.9" stroke="#dc2626" stroke-width="1" opacity="0.5"/>
<circle cx="488.5" cy="196.9" r="2.6" fill="#dc2626" opacity="0.85"/>
<line x1="493.1" y1="177.5" x2="493.1" y2="166.1" stroke="#dc2626" stroke-width="1" opacity="0.5"/>
<circle cx="493.1" cy="166.1" r="2.6" fill="#dc2626" opacity="0.85"/>
<line x1="497.7" y1="177.5" x2="497.7" y2="167.2" stroke="#dc2626" stroke-width="1" opacity="0.5"/>
<circle cx="497.7" cy="167.2" r="2.6" fill="#dc2626" opacity="0.85"/>
<line x1="502.3" y1="177.5" x2="502.3" y2="152.6" stroke="#dc2626" stroke-width="1" opacity="0.5"/>
<circle cx="502.3" cy="152.6" r="2.6" fill="#dc2626" opacity="0.85"/>
<line x1="506.9" y1="177.5" x2="506.9" y2="173.8" stroke="#dc2626" stroke-width="1" opacity="0.5"/>
<circle cx="506.9" cy="173.8" r="2.6" fill="#dc2626" opacity="0.85"/>
<line x1="511.5" y1="177.5" x2="511.5" y2="150.2" stroke="#dc2626" stroke-width="1" opacity="0.5"/>
<circle cx="511.5" cy="150.2" r="2.6" fill="#dc2626" opacity="0.85"/>
<line x1="516.2" y1="177.5" x2="516.2" y2="153.2" stroke="#dc2626" stroke-width="1" opacity="0.5"/>
<circle cx="516.2" cy="153.2" r="2.6" fill="#dc2626" opacity="0.85"/>
<line x1="520.8" y1="177.5" x2="520.8" y2="140.7" stroke="#dc2626" stroke-width="1" opacity="0.5"/>
<circle cx="520.8" cy="140.7" r="2.6" fill="#dc2626" opacity="0.85"/>
<line x1="525.4" y1="177.5" x2="525.4" y2="163.9" stroke="#dc2626" stroke-width="1" opacity="0.5"/>
<circle cx="525.4" cy="163.9" r="2.6" fill="#dc2626" opacity="0.85"/>
<line x1="530.0" y1="177.5" x2="530.0" y2="169.3" stroke="#dc2626" stroke-width="1" opacity="0.5"/>
<circle cx="530.0" cy="169.3" r="2.6" fill="#dc2626" opacity="0.85"/>
<line x1="534.6" y1="177.5" x2="534.6" y2="204.1" stroke="#dc2626" stroke-width="1" opacity="0.5"/>
<circle cx="534.6" cy="204.1" r="2.6" fill="#dc2626" opacity="0.85"/>
<line x1="539.2" y1="177.5" x2="539.2" y2="163.5" stroke="#dc2626" stroke-width="1" opacity="0.5"/>
<circle cx="539.2" cy="163.5" r="2.6" fill="#dc2626" opacity="0.85"/>
<line x1="543.8" y1="177.5" x2="543.8" y2="203.6" stroke="#dc2626" stroke-width="1" opacity="0.5"/>
<circle cx="543.8" cy="203.6" r="2.6" fill="#dc2626" opacity="0.85"/>
<line x1="548.5" y1="177.5" x2="548.5" y2="171.1" stroke="#dc2626" stroke-width="1" opacity="0.5"/>
<circle cx="548.5" cy="171.1" r="2.6" fill="#dc2626" opacity="0.85"/>
<line x1="553.1" y1="177.5" x2="553.1" y2="195.4" stroke="#dc2626" stroke-width="1" opacity="0.5"/>
<circle cx="553.1" cy="195.4" r="2.6" fill="#dc2626" opacity="0.85"/>
<line x1="557.7" y1="177.5" x2="557.7" y2="206.2" stroke="#dc2626" stroke-width="1" opacity="0.5"/>
<circle cx="557.7" cy="206.2" r="2.6" fill="#dc2626" opacity="0.85"/>
<line x1="562.3" y1="177.5" x2="562.3" y2="204.6" stroke="#dc2626" stroke-width="1" opacity="0.5"/>
<circle cx="562.3" cy="204.6" r="2.6" fill="#dc2626" opacity="0.85"/>
<line x1="566.9" y1="177.5" x2="566.9" y2="203.6" stroke="#dc2626" stroke-width="1" opacity="0.5"/>
<circle cx="566.9" cy="203.6" r="2.6" fill="#dc2626" opacity="0.85"/>
<line x1="571.5" y1="177.5" x2="571.5" y2="186.1" stroke="#dc2626" stroke-width="1" opacity="0.5"/>
<circle cx="571.5" cy="186.1" r="2.6" fill="#dc2626" opacity="0.85"/>
<line x1="576.2" y1="177.5" x2="576.2" y2="186.2" stroke="#dc2626" stroke-width="1" opacity="0.5"/>
<circle cx="576.2" cy="186.2" r="2.6" fill="#dc2626" opacity="0.85"/>
<line x1="580.8" y1="177.5" x2="580.8" y2="156.6" stroke="#dc2626" stroke-width="1" opacity="0.5"/>
<circle cx="580.8" cy="156.6" r="2.6" fill="#dc2626" opacity="0.85"/>
<line x1="585.4" y1="177.5" x2="585.4" y2="189.3" stroke="#dc2626" stroke-width="1" opacity="0.5"/>
<circle cx="585.4" cy="189.3" r="2.6" fill="#dc2626" opacity="0.85"/>
<line x1="590.0" y1="177.5" x2="590.0" y2="165.2" stroke="#dc2626" stroke-width="1" opacity="0.5"/>
<circle cx="590.0" cy="165.2" r="2.6" fill="#dc2626" opacity="0.85"/>
<line x1="594.6" y1="177.5" x2="594.6" y2="163.1" stroke="#dc2626" stroke-width="1" opacity="0.5"/>
<circle cx="594.6" cy="163.1" r="2.6" fill="#dc2626" opacity="0.85"/>
<line x1="599.2" y1="177.5" x2="599.2" y2="126.8" stroke="#dc2626" stroke-width="1" opacity="0.5"/>
<circle cx="599.2" cy="126.8" r="2.6" fill="#dc2626" opacity="0.85"/>
<line x1="603.8" y1="177.5" x2="603.8" y2="150.1" stroke="#dc2626" stroke-width="1" opacity="0.5"/>
<circle cx="603.8" cy="150.1" r="2.6" fill="#dc2626" opacity="0.85"/>
<line x1="608.5" y1="177.5" x2="608.5" y2="198.2" stroke="#dc2626" stroke-width="1" opacity="0.5"/>
<circle cx="608.5" cy="198.2" r="2.6" fill="#dc2626" opacity="0.85"/>
<line x1="613.1" y1="177.5" x2="613.1" y2="177.7" stroke="#dc2626" stroke-width="1" opacity="0.5"/>
<circle cx="613.1" cy="177.7" r="2.6" fill="#dc2626" opacity="0.85"/>
<line x1="617.7" y1="177.5" x2="617.7" y2="188.1" stroke="#dc2626" stroke-width="1" opacity="0.5"/>
<circle cx="617.7" cy="188.1" r="2.6" fill="#dc2626" opacity="0.85"/>
<line x1="622.3" y1="177.5" x2="622.3" y2="187.6" stroke="#dc2626" stroke-width="1" opacity="0.5"/>
<circle cx="622.3" cy="187.6" r="2.6" fill="#dc2626" opacity="0.85"/>
<line x1="626.9" y1="177.5" x2="626.9" y2="190.6" stroke="#dc2626" stroke-width="1" opacity="0.5"/>
<circle cx="626.9" cy="190.6" r="2.6" fill="#dc2626" opacity="0.85"/>
<line x1="631.5" y1="177.5" x2="631.5" y2="174.5" stroke="#dc2626" stroke-width="1" opacity="0.5"/>
<circle cx="631.5" cy="174.5" r="2.6" fill="#dc2626" opacity="0.85"/>
<line x1="636.2" y1="177.5" x2="636.2" y2="172.6" stroke="#dc2626" stroke-width="1" opacity="0.5"/>
<circle cx="636.2" cy="172.6" r="2.6" fill="#dc2626" opacity="0.85"/>
<line x1="640.8" y1="177.5" x2="640.8" y2="198.0" stroke="#dc2626" stroke-width="1" opacity="0.5"/>
<circle cx="640.8" cy="198.0" r="2.6" fill="#dc2626" opacity="0.85"/>
<line x1="645.4" y1="177.5" x2="645.4" y2="198.0" stroke="#dc2626" stroke-width="1" opacity="0.5"/>
<circle cx="645.4" cy="198.0" r="2.6" fill="#dc2626" opacity="0.85"/>
<line x1="650.0" y1="177.5" x2="650.0" y2="194.7" stroke="#dc2626" stroke-width="1" opacity="0.5"/>
<circle cx="650.0" cy="194.7" r="2.6" fill="#dc2626" opacity="0.85"/>
<polyline points="470.0,181.5 474.6,181.5 479.2,181.5 483.8,181.5 488.5,181.5 490.8,181.5 490.8,159.7 493.1,159.7 497.7,159.7 502.3,159.7 506.9,159.7 511.5,159.7 516.2,159.7 520.8,159.7 525.4,159.7 530.0,159.7 532.3,159.7 532.3,192.4 534.6,192.4 539.2,192.4 543.8,192.4 548.5,192.4 553.1,192.4 557.7,192.4 562.3,192.4 566.9,192.4 571.5,192.4 576.2,192.4 578.5,192.4 578.5,176.9 580.8,176.9 585.4,176.9 590.0,176.9 594.6,176.9 599.2,176.9 603.8,176.9 608.5,176.9 613.1,176.9 617.7,176.9 622.3,176.9 626.9,176.9 631.5,176.9 636.2,176.9 640.8,176.9 645.4,176.9 650.0,176.9" fill="none" stroke="#7c3aed" stroke-width="2.4" stroke-linejoin="round"/>
<text x="476.0" y="105.0" font-family="Segoe UI, Helvetica, Arial, sans-serif" font-size="11" fill="#6b7280" text-anchor="start" font-weight="normal">• artık   — ağaç 3</text>
<text x="560.0" y="292.0" font-family="Segoe UI, Helvetica, Arial, sans-serif" font-size="14" fill="#1f2937" text-anchor="middle" font-weight="bold">(3) Ağaç 3</text>
<text x="560.0" y="311.0" font-family="Segoe UI, Helvetica, Arial, sans-serif" font-size="12" fill="#6b7280" text-anchor="middle" font-weight="normal">2. adımın artıklarını öğrenir</text>
<line x1="658.0" y1="177.5" x2="676.0" y2="177.5" stroke="#1f2937" stroke-width="1.8"/>
<polygon points="676.0,172.5 684.0,177.5 676.0,182.5" fill="#1f2937"/>
<text x="671.0" y="168.5" font-family="Segoe UI, Helvetica, Arial, sans-serif" font-size="10.5" fill="#dc2626" text-anchor="middle" font-weight="bold">artık</text>
<rect x="690.0" y="95" width="180" height="165" fill="#f9fafb" stroke="none"/>
<line x1="690.0" y1="260" x2="878.0" y2="260" stroke="#6b7280" stroke-width="1.2"/>
<line x1="690.0" y1="260" x2="690.0" y2="89" stroke="#6b7280" stroke-width="1.2"/>
<polygon points="878.0,256 885.0,260 878.0,264" fill="#6b7280"/>
<polygon points="686.0,89 690.0,82 694.0,89" fill="#6b7280"/>
<text x="870.0" y="278.0" font-family="Segoe UI, Helvetica, Arial, sans-serif" font-size="11" fill="#6b7280" text-anchor="end" font-weight="normal">x</text>
<circle cx="690.0" cy="213.1" r="2.8" fill="#2563eb" opacity="0.8"/>
<circle cx="694.6" cy="201.7" r="2.8" fill="#2563eb" opacity="0.8"/>
<circle cx="699.2" cy="180.7" r="2.8" fill="#2563eb" opacity="0.8"/>
<circle cx="703.8" cy="180.9" r="2.8" fill="#2563eb" opacity="0.8"/>
<circle cx="708.5" cy="191.3" r="2.8" fill="#2563eb" opacity="0.8"/>
<circle cx="713.1" cy="174.3" r="2.8" fill="#2563eb" opacity="0.8"/>
<circle cx="717.7" cy="175.0" r="2.8" fill="#2563eb" opacity="0.8"/>
<circle cx="722.3" cy="166.9" r="2.8" fill="#2563eb" opacity="0.8"/>
<circle cx="726.9" cy="178.6" r="2.8" fill="#2563eb" opacity="0.8"/>
<circle cx="731.5" cy="165.6" r="2.8" fill="#2563eb" opacity="0.8"/>
<circle cx="736.2" cy="167.3" r="2.8" fill="#2563eb" opacity="0.8"/>
<circle cx="740.8" cy="160.4" r="2.8" fill="#2563eb" opacity="0.8"/>
<circle cx="745.4" cy="173.1" r="2.8" fill="#2563eb" opacity="0.8"/>
<circle cx="750.0" cy="176.1" r="2.8" fill="#2563eb" opacity="0.8"/>
<circle cx="754.6" cy="195.2" r="2.8" fill="#2563eb" opacity="0.8"/>
<circle cx="759.2" cy="172.9" r="2.8" fill="#2563eb" opacity="0.8"/>
<circle cx="763.8" cy="207.5" r="2.8" fill="#2563eb" opacity="0.8"/>
<circle cx="768.5" cy="189.6" r="2.8" fill="#2563eb" opacity="0.8"/>
<circle cx="773.1" cy="203.0" r="2.8" fill="#2563eb" opacity="0.8"/>
<circle cx="777.7" cy="208.9" r="2.8" fill="#2563eb" opacity="0.8"/>
<circle cx="782.3" cy="208.0" r="2.8" fill="#2563eb" opacity="0.8"/>
<circle cx="786.9" cy="207.5" r="2.8" fill="#2563eb" opacity="0.8"/>
<circle cx="791.5" cy="197.8" r="2.8" fill="#2563eb" opacity="0.8"/>
<circle cx="796.2" cy="197.9" r="2.8" fill="#2563eb" opacity="0.8"/>
<circle cx="800.8" cy="181.6" r="2.8" fill="#2563eb" opacity="0.8"/>
<circle cx="805.4" cy="199.6" r="2.8" fill="#2563eb" opacity="0.8"/>
<circle cx="810.0" cy="179.5" r="2.8" fill="#2563eb" opacity="0.8"/>
<circle cx="814.6" cy="178.4" r="2.8" fill="#2563eb" opacity="0.8"/>
<circle cx="819.2" cy="158.4" r="2.8" fill="#2563eb" opacity="0.8"/>
<circle cx="823.8" cy="171.2" r="2.8" fill="#2563eb" opacity="0.8"/>
<circle cx="828.5" cy="150.6" r="2.8" fill="#2563eb" opacity="0.8"/>
<circle cx="833.1" cy="139.3" r="2.8" fill="#2563eb" opacity="0.8"/>
<circle cx="837.7" cy="145.1" r="2.8" fill="#2563eb" opacity="0.8"/>
<circle cx="842.3" cy="121.8" r="2.8" fill="#2563eb" opacity="0.8"/>
<circle cx="846.9" cy="123.4" r="2.8" fill="#2563eb" opacity="0.8"/>
<circle cx="851.5" cy="114.6" r="2.8" fill="#2563eb" opacity="0.8"/>
<circle cx="856.2" cy="113.5" r="2.8" fill="#2563eb" opacity="0.8"/>
<circle cx="860.8" cy="127.5" r="2.8" fill="#2563eb" opacity="0.8"/>
<circle cx="865.4" cy="127.5" r="2.8" fill="#2563eb" opacity="0.8"/>
<circle cx="870.0" cy="125.7" r="2.8" fill="#2563eb" opacity="0.8"/>
<polyline points="690.0,215.3 692.3,215.3 692.3,203.9 694.6,203.9 696.9,203.9 696.9,182.8 699.2,182.8 703.8,182.8 708.5,182.8 710.8,182.8 710.8,170.8 713.1,170.8 717.7,170.8 722.3,170.8 726.9,170.8 731.5,170.8 736.2,170.8 740.8,170.8 745.4,170.8 750.0,170.8 752.3,170.8 752.3,188.8 754.6,188.8 759.2,188.8 761.5,188.8 761.5,201.3 763.8,201.3 768.5,201.3 773.1,201.3 777.7,201.3 782.3,201.3 786.9,201.3 791.5,201.3 796.2,201.3 798.5,201.3 798.5,192.8 800.8,192.8 805.4,192.8 807.7,192.8 807.7,186.0 810.0,186.0 814.6,186.0 819.2,186.0 823.8,186.0 826.2,186.0 826.2,138.9 828.5,138.9 833.1,138.9 837.7,138.9 840.0,138.9 840.0,115.9 842.3,115.9 846.9,115.9 851.5,115.9 856.2,115.9 860.8,115.9 865.4,115.9 870.0,115.9" fill="none" stroke="#ea580c" stroke-width="1.6" stroke-linejoin="round"/>
<polyline points="690.0,212.5 694.6,201.4 699.2,181.4 703.8,181.4 708.5,189.5 713.1,174.6 717.7,174.6 722.3,168.5 726.9,176.7 731.5,166.4 736.2,166.4 740.8,162.5 745.4,173.5 750.0,176.3 754.6,192.3 759.2,175.7 763.8,204.9 768.5,192.0 773.1,202.7 777.7,207.4 782.3,207.4 786.9,207.4 791.5,197.8 796.2,197.8 800.8,183.7 805.4,197.5 810.0,179.8 814.6,178.3 819.2,160.7 823.8,169.1 828.5,150.7 833.1,141.0 837.7,143.5 842.3,122.8 846.9,122.8 851.5,115.0 856.2,115.0 860.8,127.0 865.4,127.0 870.0,126.5" fill="none" stroke="#16a34a" stroke-width="2.2" stroke-linejoin="round" stroke-linecap="round" opacity="1.0"/>
<text x="696.0" y="105.0" font-family="Segoe UI, Helvetica, Arial, sans-serif" font-size="11" fill="#ea580c" text-anchor="start" font-weight="bold">— 3 ağaç</text>
<text x="696.0" y="120.0" font-family="Segoe UI, Helvetica, Arial, sans-serif" font-size="11" fill="#16a34a" text-anchor="start" font-weight="bold">— 200 ağaç (η = 0.1)</text>
<text x="780.0" y="292.0" font-family="Segoe UI, Helvetica, Arial, sans-serif" font-size="14" fill="#1f2937" text-anchor="middle" font-weight="bold">(4) Toplam model</text>
<text x="780.0" y="311.0" font-family="Segoe UI, Helvetica, Arial, sans-serif" font-size="12" fill="#6b7280" text-anchor="middle" font-weight="normal">F = f₀ + f₁ + f₂ + f₃ + …</text>
<rect x="60" y="350" width="780" height="56" rx="8" fill="#f9fafb" stroke="#e5e7eb"/>
<text x="270.0" y="373.0" font-family="Segoe UI, Helvetica, Arial, sans-serif" font-size="14" fill="#dc2626" text-anchor="middle" font-weight="bold">Artık:  rᵢ = yᵢ − Fₘ₋₁(xᵢ)</text>
<text x="610.0" y="373.0" font-family="Segoe UI, Helvetica, Arial, sans-serif" font-size="14" fill="#1f2937" text-anchor="middle" font-weight="bold">Güncelleme:  Fₘ(x) = Fₘ₋₁(x) + η · fₘ(x)</text>
<text x="450.0" y="393.0" font-family="Segoe UI, Helvetica, Arial, sans-serif" font-size="12" fill="#6b7280" text-anchor="middle" font-weight="normal">fₘ: m. ağaç (artıklara uydurulur) · η: öğrenme hızı (şekilde 1–3. adımlarda η = 1 alınmıştır)</text>
</svg>
