<svg xmlns="http://www.w3.org/2000/svg" width="900" height="400" viewBox="0 0 900 400">
<title>Durağan ve durağan olmayan seriler</title>
<rect x="0.5" y="0.5" width="899" height="399" rx="10" fill="#ffffff" stroke="#d1d5db"/>
<text x="450.0" y="30.0" font-family="Segoe UI, Helvetica, Arial, sans-serif" font-size="18" fill="#1f2937" text-anchor="middle" font-weight="bold">Durağan ve Durağan Olmayan Seriler</text>
<text x="450.0" y="50.0" font-family="Segoe UI, Helvetica, Arial, sans-serif" font-size="12.5" fill="#6b7280" text-anchor="middle" font-weight="normal">Durağanlık: ortalama, varyans ve öz-kovaryans yapısı zamana göre değişmez</text>
<rect x="40" y="95" width="190" height="200" fill="#f9fafb" stroke="none"/>
<line x1="40" y1="295" x2="238" y2="295" stroke="#6b7280" stroke-width="1.2"/>
<line x1="40" y1="295" x2="40" y2="89" stroke="#6b7280" stroke-width="1.2"/>
<polygon points="238,291 245,295 238,299" fill="#6b7280"/>
<polygon points="36,89 40,82 44,89" fill="#6b7280"/>
<polygon points="40.0,147.4 41.6,147.4 43.2,147.4 44.8,147.4 46.4,147.4 48.0,147.4 49.6,147.4 51.2,147.4 52.8,147.4 54.4,147.4 56.0,147.4 57.6,147.4 59.2,147.4 60.8,147.4 62.4,147.4 63.9,147.4 65.5,147.4 67.1,147.4 68.7,147.4 70.3,147.4 71.9,147.4 73.5,147.4 75.1,147.4 76.7,147.4 78.3,147.4 79.9,147.4 81.5,147.4 83.1,147.4 84.7,147.4 86.3,147.4 87.9,147.4 89.5,147.4 91.1,147.4 92.7,147.4 94.3,147.4 95.9,147.4 97.5,147.4 99.1,147.4 100.7,147.4 102.3,147.4 103.9,147.4 105.5,147.4 107.1,147.4 108.7,147.4 110.3,147.4 111.8,147.4 113.4,147.4 115.0,147.4 116.6,147.4 118.2,147.4 119.8,147.4 121.4,147.4 123.0,147.4 124.6,147.4 126.2,147.4 127.8,147.4 129.4,147.4 131.0,147.4 132.6,147.4 134.2,147.4 135.8,147.4 137.4,147.4 139.0,147.4 140.6,147.4 142.2,147.4 143.8,147.4 145.4,147.4 147.0,147.4 148.6,147.4 150.2,147.4 151.8,147.4 153.4,147.4 155.0,147.4 156.6,147.4 158.2,147.4 159.7,147.4 161.3,147.4 162.9,147.4 164.5,147.4 166.1,147.4 167.7,147.4 169.3,147.4 170.9,147.4 172.5,147.4 174.1,147.4 175.7,147.4 177.3,147.4 178.9,147.4 180.5,147.4 182.1,147.4 183.7,147.4 185.3,147.4 186.9,147.4 188.5,147.4 190.1,147.4 191.7,147.4 193.3,147.4 194.9,147.4 196.5,147.4 198.1,147.4 199.7,147.4 201.3,147.4 202.9,147.4 204.5,147.4 206.1,147.4 207.6,147.4 209.2,147.4 210.8,147.4 212.4,147.4 214.0,147.4 215.6,147.4 217.2,147.4 218.8,147.4 220.4,147.4 222.0,147.4 223.6,147.4 225.2,147.4 226.8,147.4 228.4,147.4 230.0,147.4 230.0,242.6 228.4,242.6 226.8,242.6 225.2,242.6 223.6,242.6 222.0,242.6 220.4,242.6 218.8,242.6 217.2,242.6 215.6,242.6 214.0,242.6 212.4,242.6 210.8,242.6 209.2,242.6 207.6,242.6 206.1,242.6 204.5,242.6 202.9,242.6 201.3,242.6 199.7,242.6 198.1,242.6 196.5,242.6 194.9,242.6 193.3,242.6 191.7,242.6 190.1,242.6 188.5,242.6 186.9,242.6 185.3,242.6 183.7,242.6 182.1,242.6 180.5,242.6 178.9,242.6 177.3,242.6 175.7,242.6 174.1,242.6 172.5,242.6 170.9,242.6 169.3,242.6 167.7,242.6 166.1,242.6 164.5,242.6 162.9,242.6 161.3,242.6 159.7,242.6 158.2,242.6 156.6,242.6 155.0,242.6 153.4,242.6 151.8,242.6 150.2,242.6 148.6,242.6 147.0,242.6 145.4,242.6 143.8,242.6 142.2,242.6 140.6,242.6 139.0,242.6 137.4,242.6 135.8,242.6 134.2,242.6 132.6,242.6 131.0,242.6 129.4,242.6 127.8,242.6 126.2,242.6 124.6,242.6 123.0,242.6 121.4,242.6 119.8,242.6 118.2,242.6 116.6,242.6 115.0,242.6 113.4,242.6 111.8,242.6 110.3,242.6 108.7,242.6 107.1,242.6 105.5,242.6 103.9,242.6 102.3,242.6 100.7,242.6 99.1,242.6 97.5,242.6 95.9,242.6 94.3,242.6 92.7,242.6 91.1,242.6 89.5,242.6 87.9,242.6 86.3,242.6 84.7,242.6 83.1,242.6 81.5,242.6 79.9,242.6 78.3,242.6 76.7,242.6 75.1,242.6 73.5,242.6 71.9,242.6 70.3,242.6 68.7,242.6 67.1,242.6 65.5,242.6 63.9,242.6 62.4,242.6 60.8,242.6 59.2,242.6 57.6,242.6 56.0,242.6 54.4,242.6 52.8,242.6 51.2,242.6 49.6,242.6 48.0,242.6 46.4,242.6 44.8,242.6 43.2,242.6 41.6,242.6 40.0,242.6" fill="#16a34a" opacity="0.12" stroke="none"/>
<polyline points="40.0,195.0 41.6,195.0 43.2,195.0 44.8,195.0 46.4,195.0 48.0,195.0 49.6,195.0 51.2,195.0 52.8,195.0 54.4,195.0 56.0,195.0 57.6,195.0 59.2,195.0 60.8,195.0 62.4,195.0 63.9,195.0 65.5,195.0 67.1,195.0 68.7,195.0 70.3,195.0 71.9,195.0 73.5,195.0 75.1,195.0 76.7,195.0 78.3,195.0 79.9,195.0 81.5,195.0 83.1,195.0 84.7,195.0 86.3,195.0 87.9,195.0 89.5,195.0 91.1,195.0 92.7,195.0 94.3,195.0 95.9,195.0 97.5,195.0 99.1,195.0 100.7,195.0 102.3,195.0 103.9,195.0 105.5,195.0 107.1,195.0 108.7,195.0 110.3,195.0 111.8,195.0 113.4,195.0 115.0,195.0 116.6,195.0 118.2,195.0 119.8,195.0 121.4,195.0 123.0,195.0 124.6,195.0 126.2,195.0 127.8,195.0 129.4,195.0 131.0,195.0 132.6,195.0 134.2,195.0 135.8,195.0 137.4,195.0 139.0,195.0 140.6,195.0 142.2,195.0 143.8,195.0 145.4,195.0 147.0,195.0 148.6,195.0 150.2,195.0 151.8,195.0 153.4,195.0 155.0,195.0 156.6,195.0 158.2,195.0 159.7,195.0 161.3,195.0 162.9,195.0 164.5,195.0 166.1,195.0 167.7,195.0 169.3,195.0 170.9,195.0 172.5,195.0 174.1,195.0 175.7,195.0 177.3,195.0 178.9,195.0 180.5,195.0 182.1,195.0 183.7,195.0 185.3,195.0 186.9,195.0 188.5,195.0 190.1,195.0 191.7,195.0 193.3,195.0 194.9,195.0 196.5,195.0 198.1,195.0 199.7,195.0 201.3,195.0 202.9,195.0 204.5,195.0 206.1,195.0 207.6,195.0 209.2,195.0 210.8,195.0 212.4,195.0 214.0,195.0 215.6,195.0 217.2,195.0 218.8,195.0 220.4,195.0 222.0,195.0 223.6,195.0 225.2,195.0 226.8,195.0 228.4,195.0 230.0,195.0" fill="none" stroke="#1f2937" stroke-width="1.5" stroke-linejoin="round" stroke-linecap="round" opacity="1.0" stroke-dasharray="6 4"/>
<text x="234.0" y="199.0" font-family="Segoe UI, Helvetica, Arial, sans-serif" font-size="13" fill="#1f2937" text-anchor="start" font-weight="bold" font-style="italic">μ</text>
<text x="228.0" y="143.4" font-family="Segoe UI, Helvetica, Arial, sans-serif" font-size="11" fill="#16a34a" text-anchor="end" font-weight="bold">μ ± 2σ</text>
<polyline points="40.0,224.1 41.6,186.0 43.2,171.3 44.8,207.2 46.4,226.6 48.0,196.6 49.6,183.6 51.2,168.9 52.8,223.9 54.4,225.8 56.0,178.2 57.6,183.7 59.2,158.5 60.8,171.6 62.4,197.4 63.9,201.5 65.5,133.8 67.1,201.9 68.7,213.7 70.3,222.1 71.9,192.7 73.5,191.5 75.1,203.2 76.7,196.5 78.3,188.5 79.9,178.5 81.5,168.9 83.1,190.0 84.7,237.6 86.3,178.3 87.9,228.8 89.5,199.1 91.1,230.1 92.7,194.9 94.3,213.5 95.9,189.9 97.5,116.4 99.1,196.2 100.7,174.9 102.3,226.5 103.9,201.9 105.5,179.2 107.1,197.2 108.7,186.2 110.3,192.5 111.8,219.0 113.4,181.6 115.0,214.3 116.6,150.4 118.2,207.0 119.8,178.7 121.4,194.9 123.0,172.3 124.6,209.3 126.2,171.2 127.8,197.9 129.4,164.9 131.0,180.1 132.6,191.6 134.2,213.6 135.8,176.7 137.4,183.9 139.0,155.9 140.6,204.0 142.2,181.8 143.8,182.9 145.4,188.3 147.0,190.0 148.6,190.7 150.2,209.2 151.8,219.2 153.4,204.4 155.0,180.9 156.6,159.0 158.2,171.7 159.7,169.9 161.3,176.5 162.9,178.4 164.5,190.6 166.1,176.6 167.7,152.8 169.3,202.8 170.9,211.5 172.5,148.3 174.1,189.2 175.7,171.9 177.3,174.2 178.9,222.0 180.5,137.1 182.1,152.7 183.7,190.8 185.3,177.1 186.9,192.0 188.5,216.1 190.1,197.7 191.7,186.1 193.3,168.4 194.9,178.1 196.5,193.6 198.1,162.7 199.7,213.1 201.3,176.1 202.9,168.5 204.5,202.0 206.1,237.6 207.6,216.6 209.2,189.4 210.8,182.4 212.4,158.1 214.0,218.9 215.6,195.0 217.2,179.6 218.8,198.8 220.4,251.4 222.0,175.8 223.6,139.9 225.2,171.1 226.8,216.8 228.4,204.8 230.0,189.7" fill="none" stroke="#2563eb" stroke-width="1.5" stroke-linejoin="round" stroke-linecap="round" opacity="1.0"/>
<text x="135.0" y="323.0" font-family="Segoe UI, Helvetica, Arial, sans-serif" font-size="14" fill="#16a34a" text-anchor="middle" font-weight="bold">(a) Durağan</text>
<text x="135.0" y="342.0" font-family="Segoe UI, Helvetica, Arial, sans-serif" font-size="12" fill="#1f2937" text-anchor="middle" font-weight="normal">Beyaz gürültü</text>
<text x="135.0" y="365.0" font-family="Segoe UI, Helvetica, Arial, sans-serif" font-size="11.5" fill="#6b7280" text-anchor="middle" font-weight="normal">Ortalama sabit</text>
<text x="135.0" y="382.0" font-family="Segoe UI, Helvetica, Arial, sans-serif" font-size="11.5" fill="#6b7280" text-anchor="middle" font-weight="normal">Varyans sabit</text>
<rect x="255" y="95" width="190" height="200" fill="#f9fafb" stroke="none"/>
<line x1="255" y1="295" x2="453" y2="295" stroke="#6b7280" stroke-width="1.2"/>
<line x1="255" y1="295" x2="255" y2="89" stroke="#6b7280" stroke-width="1.2"/>
<polygon points="453,291 460,295 453,299" fill="#6b7280"/>
<polygon points="251,89 255,82 259,89" fill="#6b7280"/>
<polygon points="255.0,221.2 256.6,220.1 258.2,219.0 259.8,218.0 261.4,216.9 263.0,215.8 264.6,214.8 266.2,213.7 267.8,212.6 269.4,211.5 271.0,210.5 272.6,209.4 274.2,208.3 275.8,207.3 277.4,206.2 278.9,205.1 280.5,204.0 282.1,203.0 283.7,201.9 285.3,200.8 286.9,199.8 288.5,198.7 290.1,197.6 291.7,196.5 293.3,195.5 294.9,194.4 296.5,193.3 298.1,192.3 299.7,191.2 301.3,190.1 302.9,189.0 304.5,188.0 306.1,186.9 307.7,185.8 309.3,184.8 310.9,183.7 312.5,182.6 314.1,181.5 315.7,180.5 317.3,179.4 318.9,178.3 320.5,177.3 322.1,176.2 323.7,175.1 325.3,174.0 326.8,173.0 328.4,171.9 330.0,170.8 331.6,169.8 333.2,168.7 334.8,167.6 336.4,166.5 338.0,165.5 339.6,164.4 341.2,163.3 342.8,162.3 344.4,161.2 346.0,160.1 347.6,159.0 349.2,158.0 350.8,156.9 352.4,155.8 354.0,154.8 355.6,153.7 357.2,152.6 358.8,151.5 360.4,150.5 362.0,149.4 363.6,148.3 365.2,147.3 366.8,146.2 368.4,145.1 370.0,144.0 371.6,143.0 373.2,141.9 374.7,140.8 376.3,139.8 377.9,138.7 379.5,137.6 381.1,136.5 382.7,135.5 384.3,134.4 385.9,133.3 387.5,132.3 389.1,131.2 390.7,130.1 392.3,129.0 393.9,128.0 395.5,126.9 397.1,125.8 398.7,124.8 400.3,123.7 401.9,122.6 403.5,121.5 405.1,120.5 406.7,119.4 408.3,118.3 409.9,117.3 411.5,116.2 413.1,115.1 414.7,114.0 416.3,113.0 417.9,111.9 419.5,110.8 421.1,109.8 422.6,108.7 424.2,107.6 425.8,106.5 427.4,105.5 429.0,104.4 430.6,103.3 432.2,102.3 433.8,101.2 435.4,100.1 437.0,99.0 438.6,98.0 440.2,96.9 441.8,95.8 443.4,95.0 445.0,95.0 445.0,169.9 443.4,171.0 441.8,172.0 440.2,173.1 438.6,174.2 437.0,175.2 435.4,176.3 433.8,177.4 432.2,178.5 430.6,179.5 429.0,180.6 427.4,181.7 425.8,182.7 424.2,183.8 422.6,184.9 421.1,186.0 419.5,187.0 417.9,188.1 416.3,189.2 414.7,190.2 413.1,191.3 411.5,192.4 409.9,193.5 408.3,194.5 406.7,195.6 405.1,196.7 403.5,197.7 401.9,198.8 400.3,199.9 398.7,201.0 397.1,202.0 395.5,203.1 393.9,204.2 392.3,205.2 390.7,206.3 389.1,207.4 387.5,208.5 385.9,209.5 384.3,210.6 382.7,211.7 381.1,212.7 379.5,213.8 377.9,214.9 376.3,216.0 374.7,217.0 373.2,218.1 371.6,219.2 370.0,220.2 368.4,221.3 366.8,222.4 365.2,223.5 363.6,224.5 362.0,225.6 360.4,226.7 358.8,227.7 357.2,228.8 355.6,229.9 354.0,231.0 352.4,232.0 350.8,233.1 349.2,234.2 347.6,235.2 346.0,236.3 344.4,237.4 342.8,238.5 341.2,239.5 339.6,240.6 338.0,241.7 336.4,242.7 334.8,243.8 333.2,244.9 331.6,246.0 330.0,247.0 328.4,248.1 326.8,249.2 325.3,250.2 323.7,251.3 322.1,252.4 320.5,253.5 318.9,254.5 317.3,255.6 315.7,256.7 314.1,257.7 312.5,258.8 310.9,259.9 309.3,261.0 307.7,262.0 306.1,263.1 304.5,264.2 302.9,265.2 301.3,266.3 299.7,267.4 298.1,268.5 296.5,269.5 294.9,270.6 293.3,271.7 291.7,272.7 290.1,273.8 288.5,274.9 286.9,276.0 285.3,277.0 283.7,278.1 282.1,279.2 280.5,280.2 278.9,281.3 277.4,282.4 275.8,283.5 274.2,284.5 272.6,285.6 271.0,286.7 269.4,287.7 267.8,288.8 266.2,289.9 264.6,291.0 263.0,292.0 261.4,293.1 259.8,294.2 258.2,295.0 256.6,295.0 255.0,295.0" fill="#dc2626" opacity="0.1" stroke="none"/>
<polyline points="255.0,259.3 256.6,258.2 258.2,257.1 259.8,256.1 261.4,255.0 263.0,253.9 264.6,252.9 266.2,251.8 267.8,250.7 269.4,249.6 271.0,248.6 272.6,247.5 274.2,246.4 275.8,245.4 277.4,244.3 278.9,243.2 280.5,242.1 282.1,241.1 283.7,240.0 285.3,238.9 286.9,237.9 288.5,236.8 290.1,235.7 291.7,234.6 293.3,233.6 294.9,232.5 296.5,231.4 298.1,230.4 299.7,229.3 301.3,228.2 302.9,227.1 304.5,226.1 306.1,225.0 307.7,223.9 309.3,222.9 310.9,221.8 312.5,220.7 314.1,219.6 315.7,218.6 317.3,217.5 318.9,216.4 320.5,215.4 322.1,214.3 323.7,213.2 325.3,212.1 326.8,211.1 328.4,210.0 330.0,208.9 331.6,207.9 333.2,206.8 334.8,205.7 336.4,204.6 338.0,203.6 339.6,202.5 341.2,201.4 342.8,200.4 344.4,199.3 346.0,198.2 347.6,197.1 349.2,196.1 350.8,195.0 352.4,193.9 354.0,192.9 355.6,191.8 357.2,190.7 358.8,189.6 360.4,188.6 362.0,187.5 363.6,186.4 365.2,185.4 366.8,184.3 368.4,183.2 370.0,182.1 371.6,181.1 373.2,180.0 374.7,178.9 376.3,177.9 377.9,176.8 379.5,175.7 381.1,174.6 382.7,173.6 384.3,172.5 385.9,171.4 387.5,170.4 389.1,169.3 390.7,168.2 392.3,167.1 393.9,166.1 395.5,165.0 397.1,163.9 398.7,162.9 400.3,161.8 401.9,160.7 403.5,159.6 405.1,158.6 406.7,157.5 408.3,156.4 409.9,155.4 411.5,154.3 413.1,153.2 414.7,152.1 416.3,151.1 417.9,150.0 419.5,148.9 421.1,147.9 422.6,146.8 424.2,145.7 425.8,144.6 427.4,143.6 429.0,142.5 430.6,141.4 432.2,140.4 433.8,139.3 435.4,138.2 437.0,137.1 438.6,136.1 440.2,135.0 441.8,133.9 443.4,132.9 445.0,131.8" fill="none" stroke="#1f2937" stroke-width="1.5" stroke-linejoin="round" stroke-linecap="round" opacity="1.0" stroke-dasharray="6 4"/>
<text x="449.0" y="135.8" font-family="Segoe UI, Helvetica, Arial, sans-serif" font-size="13" fill="#1f2937" text-anchor="start" font-weight="bold" font-style="italic">μₜ</text>
<polyline points="255.0,282.6 256.6,251.0 258.2,238.2 259.8,265.8 261.4,280.3 263.0,255.2 264.6,243.8 266.2,230.9 267.8,273.9 269.4,274.3 271.0,235.1 272.6,238.5 274.2,217.2 275.8,226.6 277.4,246.2 278.9,248.4 280.5,193.2 282.1,246.6 283.7,255.0 285.3,260.6 286.9,236.0 288.5,234.0 290.1,242.3 291.7,235.8 293.3,228.4 294.9,219.3 296.5,210.5 298.1,226.4 299.7,263.4 301.3,214.8 302.9,254.2 304.5,229.3 306.1,253.1 307.7,223.9 309.3,237.7 310.9,217.7 312.5,157.9 314.1,220.6 315.7,202.5 317.3,242.7 318.9,221.9 320.5,202.7 322.1,216.1 323.7,206.2 325.3,210.2 326.8,230.2 328.4,199.3 330.0,224.4 331.6,172.2 333.2,216.4 334.8,192.6 336.4,204.6 338.0,185.4 339.6,214.0 341.2,182.4 342.8,202.7 344.4,175.2 346.0,186.3 347.6,194.5 349.2,210.9 350.8,180.4 352.4,185.0 354.0,161.6 355.6,199.0 357.2,180.1 358.8,180.0 360.4,183.2 362.0,183.5 363.6,183.0 365.2,196.8 366.8,203.6 368.4,190.8 370.0,170.9 371.6,152.3 373.2,161.4 374.7,158.9 376.3,163.1 377.9,163.5 379.5,172.2 381.1,159.9 382.7,139.8 384.3,178.7 385.9,184.6 387.5,133.0 389.1,164.6 390.7,149.7 392.3,150.5 393.9,187.7 395.5,118.6 397.1,130.1 398.7,159.5 400.3,147.5 401.9,158.3 403.5,176.5 405.1,160.7 406.7,150.4 408.3,135.2 409.9,141.8 411.5,153.2 413.1,127.4 414.7,166.6 416.3,136.0 417.9,128.8 419.5,154.5 421.1,182.0 422.6,164.0 424.2,141.2 425.8,134.6 427.4,114.1 429.0,161.6 430.6,141.4 432.2,128.0 433.8,142.3 435.4,183.4 437.0,121.8 438.6,95.0 440.2,115.9 441.8,151.4 443.4,140.7 445.0,127.6" fill="none" stroke="#2563eb" stroke-width="1.5" stroke-linejoin="round" stroke-linecap="round" opacity="1.0"/>
<text x="350.0" y="323.0" font-family="Segoe UI, Helvetica, Arial, sans-serif" font-size="14" fill="#dc2626" text-anchor="middle" font-weight="bold">(b) Durağan değil</text>
<text x="350.0" y="342.0" font-family="Segoe UI, Helvetica, Arial, sans-serif" font-size="12" fill="#1f2937" text-anchor="middle" font-weight="normal">Ortalama değişiyor (trend)</text>
<text x="350.0" y="365.0" font-family="Segoe UI, Helvetica, Arial, sans-serif" font-size="11.5" fill="#6b7280" text-anchor="middle" font-weight="normal">Ortalama değişken</text>
<text x="350.0" y="382.0" font-family="Segoe UI, Helvetica, Arial, sans-serif" font-size="11.5" fill="#6b7280" text-anchor="middle" font-weight="normal">Varyans sabit</text>
<rect x="470" y="95" width="190" height="200" fill="#f9fafb" stroke="none"/>
<line x1="470" y1="295" x2="668" y2="295" stroke="#6b7280" stroke-width="1.2"/>
<line x1="470" y1="295" x2="470" y2="89" stroke="#6b7280" stroke-width="1.2"/>
<polygon points="668,291 675,295 668,299" fill="#6b7280"/>
<polygon points="466,89 470,82 474,89" fill="#6b7280"/>
<polygon points="470.0,183.1 471.6,182.3 473.2,181.6 474.8,180.8 476.4,180.1 478.0,179.3 479.6,178.6 481.2,177.8 482.8,177.1 484.4,176.3 486.0,175.6 487.6,174.8 489.2,174.0 490.8,173.3 492.4,172.5 493.9,171.8 495.5,171.0 497.1,170.3 498.7,169.5 500.3,168.8 501.9,168.0 503.5,167.3 505.1,166.5 506.7,165.8 508.3,165.0 509.9,164.2 511.5,163.5 513.1,162.7 514.7,162.0 516.3,161.2 517.9,160.5 519.5,159.7 521.1,159.0 522.7,158.2 524.3,157.5 525.9,156.7 527.5,156.0 529.1,155.2 530.7,154.4 532.3,153.7 533.9,152.9 535.5,152.2 537.1,151.4 538.7,150.7 540.3,149.9 541.8,149.2 543.4,148.4 545.0,147.7 546.6,146.9 548.2,146.2 549.8,145.4 551.4,144.6 553.0,143.9 554.6,143.1 556.2,142.4 557.8,141.6 559.4,140.9 561.0,140.1 562.6,139.4 564.2,138.6 565.8,137.9 567.4,137.1 569.0,136.3 570.6,135.6 572.2,134.8 573.8,134.1 575.4,133.3 577.0,132.6 578.6,131.8 580.2,131.1 581.8,130.3 583.4,129.6 585.0,128.8 586.6,128.1 588.2,127.3 589.7,126.5 591.3,125.8 592.9,125.0 594.5,124.3 596.1,123.5 597.7,122.8 599.3,122.0 600.9,121.3 602.5,120.5 604.1,119.8 605.7,119.0 607.3,118.3 608.9,117.5 610.5,116.7 612.1,116.0 613.7,115.2 615.3,114.5 616.9,113.7 618.5,113.0 620.1,112.2 621.7,111.5 623.3,110.7 624.9,110.0 626.5,109.2 628.1,108.5 629.7,107.7 631.3,106.9 632.9,106.2 634.5,105.4 636.1,104.7 637.6,103.9 639.2,103.2 640.8,102.4 642.4,101.7 644.0,100.9 645.6,100.2 647.2,99.4 648.8,98.7 650.4,97.9 652.0,97.1 653.6,96.4 655.2,95.6 656.8,95.0 658.4,95.0 660.0,95.0 660.0,295.0 658.4,295.0 656.8,295.0 655.2,294.4 653.6,293.6 652.0,292.9 650.4,292.1 648.8,291.3 647.2,290.6 645.6,289.8 644.0,289.1 642.4,288.3 640.8,287.6 639.2,286.8 637.6,286.1 636.1,285.3 634.5,284.6 632.9,283.8 631.3,283.1 629.7,282.3 628.1,281.5 626.5,280.8 624.9,280.0 623.3,279.3 621.7,278.5 620.1,277.8 618.5,277.0 616.9,276.3 615.3,275.5 613.7,274.8 612.1,274.0 610.5,273.3 608.9,272.5 607.3,271.7 605.7,271.0 604.1,270.2 602.5,269.5 600.9,268.7 599.3,268.0 597.7,267.2 596.1,266.5 594.5,265.7 592.9,265.0 591.3,264.2 589.7,263.5 588.2,262.7 586.6,261.9 585.0,261.2 583.4,260.4 581.8,259.7 580.2,258.9 578.6,258.2 577.0,257.4 575.4,256.7 573.8,255.9 572.2,255.2 570.6,254.4 569.0,253.7 567.4,252.9 565.8,252.1 564.2,251.4 562.6,250.6 561.0,249.9 559.4,249.1 557.8,248.4 556.2,247.6 554.6,246.9 553.0,246.1 551.4,245.4 549.8,244.6 548.2,243.8 546.6,243.1 545.0,242.3 543.4,241.6 541.8,240.8 540.3,240.1 538.7,239.3 537.1,238.6 535.5,237.8 533.9,237.1 532.3,236.3 530.7,235.6 529.1,234.8 527.5,234.0 525.9,233.3 524.3,232.5 522.7,231.8 521.1,231.0 519.5,230.3 517.9,229.5 516.3,228.8 514.7,228.0 513.1,227.3 511.5,226.5 509.9,225.8 508.3,225.0 506.7,224.2 505.1,223.5 503.5,222.7 501.9,222.0 500.3,221.2 498.7,220.5 497.1,219.7 495.5,219.0 493.9,218.2 492.4,217.5 490.8,216.7 489.2,216.0 487.6,215.2 486.0,214.4 484.4,213.7 482.8,212.9 481.2,212.2 479.6,211.4 478.0,210.7 476.4,209.9 474.8,209.2 473.2,208.4 471.6,207.7 470.0,206.9" fill="#dc2626" opacity="0.1" stroke="none"/>
<polyline points="470.0,195.0 471.6,195.0 473.2,195.0 474.8,195.0 476.4,195.0 478.0,195.0 479.6,195.0 481.2,195.0 482.8,195.0 484.4,195.0 486.0,195.0 487.6,195.0 489.2,195.0 490.8,195.0 492.4,195.0 493.9,195.0 495.5,195.0 497.1,195.0 498.7,195.0 500.3,195.0 501.9,195.0 503.5,195.0 505.1,195.0 506.7,195.0 508.3,195.0 509.9,195.0 511.5,195.0 513.1,195.0 514.7,195.0 516.3,195.0 517.9,195.0 519.5,195.0 521.1,195.0 522.7,195.0 524.3,195.0 525.9,195.0 527.5,195.0 529.1,195.0 530.7,195.0 532.3,195.0 533.9,195.0 535.5,195.0 537.1,195.0 538.7,195.0 540.3,195.0 541.8,195.0 543.4,195.0 545.0,195.0 546.6,195.0 548.2,195.0 549.8,195.0 551.4,195.0 553.0,195.0 554.6,195.0 556.2,195.0 557.8,195.0 559.4,195.0 561.0,195.0 562.6,195.0 564.2,195.0 565.8,195.0 567.4,195.0 569.0,195.0 570.6,195.0 572.2,195.0 573.8,195.0 575.4,195.0 577.0,195.0 578.6,195.0 580.2,195.0 581.8,195.0 583.4,195.0 585.0,195.0 586.6,195.0 588.2,195.0 589.7,195.0 591.3,195.0 592.9,195.0 594.5,195.0 596.1,195.0 597.7,195.0 599.3,195.0 600.9,195.0 602.5,195.0 604.1,195.0 605.7,195.0 607.3,195.0 608.9,195.0 610.5,195.0 612.1,195.0 613.7,195.0 615.3,195.0 616.9,195.0 618.5,195.0 620.1,195.0 621.7,195.0 623.3,195.0 624.9,195.0 626.5,195.0 628.1,195.0 629.7,195.0 631.3,195.0 632.9,195.0 634.5,195.0 636.1,195.0 637.6,195.0 639.2,195.0 640.8,195.0 642.4,195.0 644.0,195.0 645.6,195.0 647.2,195.0 648.8,195.0 650.4,195.0 652.0,195.0 653.6,195.0 655.2,195.0 656.8,195.0 658.4,195.0 660.0,195.0" fill="none" stroke="#1f2937" stroke-width="1.5" stroke-linejoin="round" stroke-linecap="round" opacity="1.0" stroke-dasharray="6 4"/>
<text x="664.0" y="199.0" font-family="Segoe UI, Helvetica, Arial, sans-serif" font-size="13" fill="#1f2937" text-anchor="start" font-weight="bold" font-style="italic">μ</text>
<polyline points="470.0,202.3 471.6,192.6 473.2,188.3 474.8,198.6 476.4,204.9 478.0,195.5 479.6,191.1 481.2,185.6 482.8,205.9 484.4,207.1 486.0,188.1 487.6,190.2 489.2,178.9 490.8,184.3 492.4,196.1 493.9,198.2 495.5,164.2 497.1,198.6 498.7,205.0 500.3,209.9 501.9,193.7 503.5,193.0 505.1,199.9 506.7,195.9 508.3,190.9 509.9,184.4 511.5,177.7 513.1,191.6 514.7,224.5 516.3,183.2 517.9,219.5 519.5,198.0 521.1,221.6 522.7,195.0 524.3,209.6 525.9,190.9 527.5,130.6 529.1,196.0 530.7,177.9 532.3,222.3 533.9,201.1 535.5,180.8 537.1,197.0 538.7,186.8 540.3,192.7 541.8,218.1 543.4,181.9 545.0,214.2 546.6,150.0 548.2,207.3 549.8,178.0 551.4,194.9 553.0,170.7 554.6,210.6 556.2,168.7 557.8,198.3 559.4,160.8 561.0,177.9 562.6,191.1 564.2,217.0 565.8,173.1 567.4,181.4 569.0,146.9 570.6,206.2 572.2,178.3 573.8,179.5 575.4,186.3 577.0,188.5 578.6,189.2 580.2,214.1 581.8,227.8 583.4,208.0 585.0,175.4 586.6,144.4 588.2,161.9 589.7,159.0 591.3,168.1 592.9,170.6 594.5,188.5 596.1,167.4 597.7,131.0 599.3,207.0 600.9,220.6 602.5,122.0 604.1,185.8 605.7,158.1 607.3,161.5 608.9,239.0 610.5,99.8 612.1,124.8 613.7,187.9 615.3,164.7 616.9,189.8 618.5,231.3 620.1,199.6 621.7,179.4 623.3,148.0 624.9,164.8 626.5,192.4 628.1,136.4 629.7,228.2 631.3,160.1 632.9,145.6 634.5,208.1 636.1,275.9 637.6,236.3 639.2,184.1 640.8,170.6 642.4,122.8 644.0,242.2 645.6,194.9 647.2,164.0 648.8,202.6 650.4,295.0 652.0,155.5 653.6,95.0 655.2,145.1 656.8,240.9 658.4,215.8 660.0,183.7" fill="none" stroke="#2563eb" stroke-width="1.5" stroke-linejoin="round" stroke-linecap="round" opacity="1.0"/>
<text x="565.0" y="323.0" font-family="Segoe UI, Helvetica, Arial, sans-serif" font-size="14" fill="#dc2626" text-anchor="middle" font-weight="bold">(c) Durağan değil</text>
<text x="565.0" y="342.0" font-family="Segoe UI, Helvetica, Arial, sans-serif" font-size="12" fill="#1f2937" text-anchor="middle" font-weight="normal">Varyans değişiyor</text>
<text x="565.0" y="365.0" font-family="Segoe UI, Helvetica, Arial, sans-serif" font-size="11.5" fill="#6b7280" text-anchor="middle" font-weight="normal">Ortalama sabit</text>
<text x="565.0" y="382.0" font-family="Segoe UI, Helvetica, Arial, sans-serif" font-size="11.5" fill="#6b7280" text-anchor="middle" font-weight="normal">Varyans değişken</text>
<rect x="685" y="95" width="190" height="200" fill="#f9fafb" stroke="none"/>
<line x1="685" y1="295" x2="883" y2="295" stroke="#6b7280" stroke-width="1.2"/>
<line x1="685" y1="295" x2="685" y2="89" stroke="#6b7280" stroke-width="1.2"/>
<polygon points="883,291 890,295 883,299" fill="#6b7280"/>
<polygon points="681,89 685,82 689,89" fill="#6b7280"/>
<polygon points="685.0,186.4 686.6,182.9 688.2,180.2 689.8,177.9 691.4,175.8 693.0,174.0 694.6,172.3 696.2,170.8 697.8,169.3 699.4,167.9 701.0,166.6 702.6,165.3 704.2,164.1 705.8,162.9 707.4,161.8 708.9,160.7 710.5,159.7 712.1,158.6 713.7,157.6 715.3,156.7 716.9,155.7 718.5,154.8 720.1,153.9 721.7,153.0 723.3,152.1 724.9,151.3 726.5,150.5 728.1,149.6 729.7,148.8 731.3,148.1 732.9,147.3 734.5,146.5 736.1,145.8 737.7,145.0 739.3,144.3 740.9,143.6 742.5,142.9 744.1,142.2 745.7,141.5 747.3,140.8 748.9,140.1 750.5,139.5 752.1,138.8 753.7,138.1 755.3,137.5 756.8,136.9 758.4,136.2 760.0,135.6 761.6,135.0 763.2,134.4 764.8,133.8 766.4,133.2 768.0,132.6 769.6,132.0 771.2,131.4 772.8,130.9 774.4,130.3 776.0,129.7 777.6,129.2 779.2,128.6 780.8,128.1 782.4,127.5 784.0,127.0 785.6,126.4 787.2,125.9 788.8,125.4 790.4,124.8 792.0,124.3 793.6,123.8 795.2,123.3 796.8,122.8 798.4,122.3 800.0,121.8 801.6,121.3 803.2,120.8 804.7,120.3 806.3,119.8 807.9,119.3 809.5,118.8 811.1,118.3 812.7,117.9 814.3,117.4 815.9,116.9 817.5,116.4 819.1,116.0 820.7,115.5 822.3,115.1 823.9,114.6 825.5,114.1 827.1,113.7 828.7,113.2 830.3,112.8 831.9,112.3 833.5,111.9 835.1,111.5 836.7,111.0 838.3,110.6 839.9,110.1 841.5,109.7 843.1,109.3 844.7,108.9 846.3,108.4 847.9,108.0 849.5,107.6 851.1,107.2 852.6,106.8 854.2,106.3 855.8,105.9 857.4,105.5 859.0,105.1 860.6,104.7 862.2,104.3 863.8,103.9 865.4,103.5 867.0,103.1 868.6,102.7 870.2,102.3 871.8,101.9 873.4,101.5 875.0,101.1 875.0,288.9 873.4,288.5 871.8,288.1 870.2,287.7 868.6,287.3 867.0,286.9 865.4,286.5 863.8,286.1 862.2,285.7 860.6,285.3 859.0,284.9 857.4,284.5 855.8,284.1 854.2,283.7 852.6,283.2 851.1,282.8 849.5,282.4 847.9,282.0 846.3,281.6 844.7,281.1 843.1,280.7 841.5,280.3 839.9,279.9 838.3,279.4 836.7,279.0 835.1,278.5 833.5,278.1 831.9,277.7 830.3,277.2 828.7,276.8 827.1,276.3 825.5,275.9 823.9,275.4 822.3,274.9 820.7,274.5 819.1,274.0 817.5,273.6 815.9,273.1 814.3,272.6 812.7,272.1 811.1,271.7 809.5,271.2 807.9,270.7 806.3,270.2 804.7,269.7 803.2,269.2 801.6,268.7 800.0,268.2 798.4,267.7 796.8,267.2 795.2,266.7 793.6,266.2 792.0,265.7 790.4,265.2 788.8,264.6 787.2,264.1 785.6,263.6 784.0,263.0 782.4,262.5 780.8,261.9 779.2,261.4 777.6,260.8 776.0,260.3 774.4,259.7 772.8,259.1 771.2,258.6 769.6,258.0 768.0,257.4 766.4,256.8 764.8,256.2 763.2,255.6 761.6,255.0 760.0,254.4 758.4,253.8 756.8,253.1 755.3,252.5 753.7,251.9 752.1,251.2 750.5,250.5 748.9,249.9 747.3,249.2 745.7,248.5 744.1,247.8 742.5,247.1 740.9,246.4 739.3,245.7 737.7,245.0 736.1,244.2 734.5,243.5 732.9,242.7 731.3,241.9 729.7,241.2 728.1,240.4 726.5,239.5 724.9,238.7 723.3,237.9 721.7,237.0 720.1,236.1 718.5,235.2 716.9,234.3 715.3,233.3 713.7,232.4 712.1,231.4 710.5,230.3 708.9,229.3 707.4,228.2 705.8,227.1 704.2,225.9 702.6,224.7 701.0,223.4 699.4,222.1 697.8,220.7 696.2,219.2 694.6,217.7 693.0,216.0 691.4,214.2 689.8,212.1 688.2,209.8 686.6,207.1 685.0,203.6" fill="#dc2626" opacity="0.1" stroke="none"/>
<polyline points="685.0,195.0 686.6,195.0 688.2,195.0 689.8,195.0 691.4,195.0 693.0,195.0 694.6,195.0 696.2,195.0 697.8,195.0 699.4,195.0 701.0,195.0 702.6,195.0 704.2,195.0 705.8,195.0 707.4,195.0 708.9,195.0 710.5,195.0 712.1,195.0 713.7,195.0 715.3,195.0 716.9,195.0 718.5,195.0 720.1,195.0 721.7,195.0 723.3,195.0 724.9,195.0 726.5,195.0 728.1,195.0 729.7,195.0 731.3,195.0 732.9,195.0 734.5,195.0 736.1,195.0 737.7,195.0 739.3,195.0 740.9,195.0 742.5,195.0 744.1,195.0 745.7,195.0 747.3,195.0 748.9,195.0 750.5,195.0 752.1,195.0 753.7,195.0 755.3,195.0 756.8,195.0 758.4,195.0 760.0,195.0 761.6,195.0 763.2,195.0 764.8,195.0 766.4,195.0 768.0,195.0 769.6,195.0 771.2,195.0 772.8,195.0 774.4,195.0 776.0,195.0 777.6,195.0 779.2,195.0 780.8,195.0 782.4,195.0 784.0,195.0 785.6,195.0 787.2,195.0 788.8,195.0 790.4,195.0 792.0,195.0 793.6,195.0 795.2,195.0 796.8,195.0 798.4,195.0 800.0,195.0 801.6,195.0 803.2,195.0 804.7,195.0 806.3,195.0 807.9,195.0 809.5,195.0 811.1,195.0 812.7,195.0 814.3,195.0 815.9,195.0 817.5,195.0 819.1,195.0 820.7,195.0 822.3,195.0 823.9,195.0 825.5,195.0 827.1,195.0 828.7,195.0 830.3,195.0 831.9,195.0 833.5,195.0 835.1,195.0 836.7,195.0 838.3,195.0 839.9,195.0 841.5,195.0 843.1,195.0 844.7,195.0 846.3,195.0 847.9,195.0 849.5,195.0 851.1,195.0 852.6,195.0 854.2,195.0 855.8,195.0 857.4,195.0 859.0,195.0 860.6,195.0 862.2,195.0 863.8,195.0 865.4,195.0 867.0,195.0 868.6,195.0 870.2,195.0 871.8,195.0 873.4,195.0 875.0,195.0" fill="none" stroke="#1f2937" stroke-width="1.5" stroke-linejoin="round" stroke-linecap="round" opacity="1.0" stroke-dasharray="6 4"/>
<polyline points="685.0,200.5 686.6,203.1 688.2,201.7 689.8,204.8 691.4,210.0 693.0,217.4 694.6,215.1 696.2,216.6 697.8,220.0 699.4,224.8 701.0,236.0 702.6,236.2 704.2,240.8 705.8,241.6 707.4,235.9 708.9,238.0 710.5,239.2 712.1,235.7 713.7,237.1 715.3,237.1 716.9,242.5 718.5,246.9 720.1,254.3 721.7,250.6 723.3,245.7 724.9,248.1 726.5,249.0 728.1,250.9 729.7,239.7 731.3,235.6 732.9,236.2 734.5,233.3 736.1,227.6 737.7,231.9 739.3,229.2 740.9,226.6 742.5,226.4 744.1,223.0 745.7,217.8 747.3,217.6 748.9,219.0 750.5,215.0 752.1,214.2 753.7,212.2 755.3,203.7 756.8,201.9 758.4,202.0 760.0,207.5 761.6,205.8 763.2,204.1 764.8,201.4 766.4,198.8 768.0,195.6 769.6,194.4 771.2,193.5 772.8,190.9 774.4,193.6 776.0,197.5 777.6,201.4 779.2,200.8 780.8,208.1 782.4,209.9 784.0,210.5 785.6,208.9 787.2,213.1 788.8,212.6 790.4,212.2 792.0,214.2 793.6,213.7 795.2,214.3 796.8,218.7 798.4,220.0 800.0,223.5 801.6,215.3 803.2,216.1 804.7,218.5 806.3,224.4 807.9,224.2 809.5,222.4 811.1,222.0 812.7,227.6 814.3,231.7 815.9,236.1 817.5,235.1 819.1,238.4 820.7,238.5 822.3,230.7 823.9,238.4 825.5,239.3 827.1,239.2 828.7,245.3 830.3,240.7 831.9,241.6 833.5,239.8 835.1,237.1 836.7,230.9 838.3,233.4 839.9,235.9 841.5,241.0 843.1,246.1 844.7,238.2 846.3,239.9 847.9,247.1 849.5,243.9 851.1,236.2 852.6,240.1 854.2,240.1 855.8,245.8 857.4,254.1 859.0,254.7 860.6,259.6 862.2,264.4 863.8,264.2 865.4,262.3 867.0,263.0 868.6,257.4 870.2,259.9 871.8,261.2 873.4,257.3 875.0,247.5" fill="none" stroke="#2563eb" stroke-width="1.5" stroke-linejoin="round" stroke-linecap="round" opacity="1.0"/>
<text x="780.0" y="323.0" font-family="Segoe UI, Helvetica, Arial, sans-serif" font-size="14" fill="#dc2626" text-anchor="middle" font-weight="bold">(d) Durağan değil</text>
<text x="780.0" y="342.0" font-family="Segoe UI, Helvetica, Arial, sans-serif" font-size="12" fill="#1f2937" text-anchor="middle" font-weight="normal">Rastgele yürüyüş (birim kök)</text>
<text x="780.0" y="365.0" font-family="Segoe UI, Helvetica, Arial, sans-serif" font-size="11.5" fill="#6b7280" text-anchor="middle" font-weight="normal">Ortalama sabit (0)</text>
<text x="780.0" y="382.0" font-family="Segoe UI, Helvetica, Arial, sans-serif" font-size="11.5" fill="#6b7280" text-anchor="middle" font-weight="normal">Var(xₜ)=tσ² büyür</text>
</svg>
